<?xml version="1.0" encoding="utf-8"?>
<!-- Generator: Adobe Illustrator 21.1.0, SVG Export Plug-In . SVG Version: 6.00 Build 0)  -->
<svg version="1.1" id="Layer_1" xmlns="http://www.w3.org/2000/svg" xmlns:xlink="http://www.w3.org/1999/xlink" x="0px" y="0px"
	 viewBox="0 0 1000 407.8" style="enable-background:new 0 0 1000 407.8;" xml:space="preserve">
<style type="text/css">
	.st0{fill:#1C50D6;}
	.st1{fill:#FF3C00;}
</style>
<path class="st0" d="M938.1,368.4l9.3-27.3l9.3,27.3H938.1z M928.1,403.2l3.3-9.2h32.1l3.3,9.2c1.1,3,3.1,4.5,5.9,4.5h24.8
	c0.8,0,1.5-0.3,2-0.9c0.6-0.6,0.9-1.1,0.9-1.6c0-0.5,0-0.9-0.1-1.2l-28.7-84c-0.8-2.9-2.8-4.3-5.9-4.3h-36.6c-3.2,0-5.1,1.4-5.9,4.3
	l-28.7,84c-0.1,0.3-0.1,0.7-0.1,1.2c0,0.5,0.3,1.1,0.9,1.6c0.6,0.6,1.3,0.9,2,0.9h24.9C925,407.7,927,406.2,928.1,403.2
	 M879.5,341.6c0.7-0.7,1.1-1.5,1.1-2.5v-19.9c0-1-0.4-1.8-1.1-2.5c-0.7-0.7-1.5-1.1-2.5-1.1h-83.4c-1,0-1.8,0.4-2.5,1.1
	c-0.7,0.7-1.1,1.5-1.1,2.5v19.9c0,1,0.3,1.8,1.1,2.5c0.7,0.7,1.5,1.1,2.5,1.1h24.1v38.1h-24.1c-1,0-1.8,0.4-2.5,1.1
	c-0.7,0.7-1.1,1.5-1.1,2.5v19.9c0,1,0.3,1.8,1.1,2.5c0.7,0.7,1.5,1,2.5,1H877c1,0,1.8-0.3,2.5-1c0.7-0.7,1.1-1.5,1.1-2.5v-19.9
	c0-1-0.4-1.8-1.1-2.5c-0.7-0.7-1.5-1.1-2.5-1.1h-23.8v-38.1H877C877.9,342.6,878.8,342.3,879.5,341.6 M730.8,349.9
	c-6.8-0.8-11.4-1.5-13.7-2.2c-2.3-0.7-3.4-1.7-3.4-3c0-2.4,2.9-3.6,8.8-3.6c4.2,0,7.4,0.9,9.5,2.7c1.1,1,2.5,1.5,4.1,1.5h28.3
	c1,0,1.7-0.3,2.3-0.8c0.6-0.5,0.9-1.2,0.9-2.1c0-6.4-4.1-12.5-12.4-18.3c-8.2-5.8-19-8.7-32.4-8.7s-24,2.7-32,8.1
	c-8,5.4-12,12.4-12,21.1c0,15.5,12.4,24.7,37.2,27.6c7.8,0.8,13,1.7,15.6,2.6c2.6,0.9,3.9,2.1,3.9,3.6c0,2.5-4.2,3.7-12.5,3.7
	c-6,0-10.3-1.1-12.8-3.4c-1.1-1.1-2.6-1.6-4.5-1.6h-27c-2,0-3,1-3,2.9c0,7.8,4,14.4,12.2,19.7s19.5,8,34.1,8
	c14.6,0,26.4-2.7,35.2-8.1c8.9-5.4,13.3-12.5,13.3-21.2s-3-15.3-9.1-19.6C755.4,354.5,745.2,351.6,730.8,349.9 M601.9,373.8h43.9
	c1,0,1.8-0.4,2.5-1.1c0.7-0.7,1.1-1.5,1.1-2.5v-17.1c0-1-0.4-1.8-1.1-2.5c-0.7-0.7-1.5-1.1-2.5-1.1h-43.9v-8.3h51.1
	c1,0,1.8-0.4,2.5-1.1c0.7-0.7,1.1-1.5,1.1-2.5v-18.5c0-1-0.4-1.8-1.1-2.5c-0.7-0.7-1.5-1.1-2.5-1.1h-81.8c-1,0-1.8,0.4-2.5,1.1
	c-0.7,0.7-1.1,1.5-1.1,2.5v84.9c0,1,0.3,1.8,1.1,2.5c0.7,0.7,1.5,1,2.5,1h83.1c1,0,1.8-0.3,2.5-1c0.7-0.7,1.1-1.5,1.1-2.5v-18.5
	c0-1-0.4-1.8-1.1-2.5c-0.7-0.7-1.5-1.1-2.5-1.1h-52.5V373.8z M514.2,316.7c-0.7,0.7-1,1.5-1,2.5v38.7l-28.7-39.6
	c-1.3-1.7-3-2.6-5.1-2.6h-21.3c-1,0-1.8,0.4-2.5,1.1c-0.7,0.7-1,1.5-1,2.5v84.9c0,1,0.3,1.8,1,2.5c0.7,0.7,1.5,1,2.5,1h24.5
	c1,0,1.8-0.3,2.5-1s1.1-1.5,1.1-2.5v-35.8l28.7,36.6c1.4,1.8,3.2,2.8,5.3,2.8h21.2c1,0,1.8-0.3,2.5-1s1.1-1.5,1.1-2.5v-84.9
	c0-1-0.4-1.8-1.1-2.5c-0.7-0.7-1.5-1.1-2.5-1.1h-24.5C515.8,315.7,514.9,316,514.2,316.7 M378.5,343.9c2.4-1.8,5.7-2.7,9.8-2.7
	c4.1,0,7.4,0.9,9.8,2.8c2.4,1.9,3.6,4.5,3.6,7.9v19.6c0,3.4-1.2,6-3.6,7.9c-2.4,1.9-5.7,2.8-9.8,2.8c-4.1,0-7.4-0.9-9.8-2.7
	c-2.4-1.8-3.6-4.4-3.6-7.8v-19.9C374.9,348.3,376.1,345.7,378.5,343.9 M423.6,325.2c-9.1-6.4-20.8-9.6-35.3-9.6
	c-14.5,0-26.2,3.2-35.3,9.6c-9.1,6.4-13.6,16.1-13.6,29v15.1c0,9,2.2,16.4,6.6,22.3c4.4,5.9,10.1,10.1,17.2,12.6
	c7.1,2.5,15.5,3.7,25.1,3.7c9.6,0,18-1.2,25.1-3.7c7.1-2.5,12.8-6.7,17.2-12.6c4.4-5.9,6.6-13.2,6.6-22v-15.6
	C437.2,341.1,432.7,331.6,423.6,325.2 M276.8,341.3c4.1,0,7.4,1,9.8,3c2.4,2,3.6,4.8,3.6,8.4v18.1c0,3.6-1.2,6.4-3.6,8.4
	c-2.4,2-5.7,3-9.8,3h-12v-40.8H276.8z M231.7,316.7c-0.7,0.7-1.1,1.5-1.1,2.5v84.9c0,1,0.4,1.8,1.1,2.5c0.7,0.7,1.5,1,2.5,1h41.9
	c14.5,0,26-2.9,34.7-8.7c9.5-6.4,14.2-16.6,14.2-30.6V355c0-9-2.2-16.6-6.6-22.6c-4.4-6-10.1-10.3-17.2-12.9
	c-7.1-2.5-15.5-3.8-25.1-3.8h-41.9C233.2,315.7,232.4,316,231.7,316.7 M179,316.7c-0.7,0.7-1.1,1.5-1.1,2.5v38.7l-28.7-39.6
	c-1.3-1.7-3-2.6-5.1-2.6h-21.3c-1,0-1.8,0.4-2.5,1.1c-0.7,0.7-1.1,1.5-1.1,2.5v84.9c0,1,0.3,1.8,1.1,2.5c0.7,0.7,1.5,1,2.5,1h24.5
	c1,0,1.8-0.3,2.5-1c0.7-0.7,1.1-1.5,1.1-2.5v-35.8l28.7,36.6c1.4,1.8,3.2,2.8,5.3,2.8h21.2c1,0,1.8-0.3,2.5-1
	c0.7-0.7,1.1-1.5,1.1-2.5v-84.9c0-1-0.4-1.8-1.1-2.5c-0.7-0.7-1.5-1.1-2.5-1.1h-24.5C180.5,315.7,179.7,316,179,316.7 M97.2,341.6
	c0.7-0.7,1.1-1.5,1.1-2.5v-19.9c0-1-0.4-1.8-1.1-2.5c-0.7-0.7-1.5-1.1-2.5-1.1H11.4c-1,0-1.8,0.4-2.5,1.1c-0.7,0.7-1.1,1.5-1.1,2.5
	v19.9c0,1,0.4,1.8,1.1,2.5c0.7,0.7,1.5,1.1,2.5,1.1h24.1v38.1H11.4c-1,0-1.8,0.4-2.5,1.1c-0.7,0.7-1.1,1.5-1.1,2.5v19.9
	c0,1,0.4,1.8,1.1,2.5c0.7,0.7,1.5,1,2.5,1h83.4c1,0,1.8-0.3,2.5-1c0.7-0.7,1.1-1.5,1.1-2.5v-19.9c0-1-0.4-1.8-1.1-2.5
	c-0.7-0.7-1.5-1.1-2.5-1.1H70.9v-38.1h23.8C95.7,342.6,96.5,342.3,97.2,341.6"/>
<path class="st0" d="M405.5,161.5L388.3,193l-17.2-31.6c-1.3-2.4-3.2-3.6-5.7-3.6h-24.1c-1,0-1.8,0.4-2.5,1.1
	c-0.7,0.7-1.1,1.5-1.1,2.5v84.9c0,1,0.4,1.8,1.1,2.5c0.7,0.7,1.5,1.1,2.5,1.1h23.8c1,0,1.8-0.4,2.5-1.1c0.7-0.7,1.1-1.5,1.1-2.5
	v-40.8l9.6,18.9c0.3,0.6,0.9,1.3,1.8,2.1c1,0.8,2.2,1.2,3.7,1.2h8.9c1.1,0,2.1-0.3,3.2-0.9c1.1-0.6,1.8-1.4,2.4-2.4l9.6-18.9v40.8
	c0,1,0.4,1.8,1.1,2.5c0.7,0.7,1.5,1.1,2.5,1.1h23.8c1,0,1.8-0.4,2.5-1.1c0.7-0.7,1.1-1.5,1.1-2.5v-84.9c0-1-0.4-1.8-1.1-2.5
	c-0.7-0.7-1.5-1.1-2.5-1.1h-24.1C408.7,157.9,406.8,159.1,405.5,161.5 M274.6,161.5c0-1-0.4-1.8-1.1-2.5c-0.7-0.7-1.5-1.1-2.5-1.1
	h-28.4c-1,0-1.8,0.4-2.5,1.1c-0.7,0.7-1.1,1.5-1.1,2.5v84.9c0,1,0.3,1.8,1.1,2.5c0.7,0.7,1.5,1.1,2.5,1.1h76.8c1,0,1.8-0.4,2.5-1.1
	c0.7-0.7,1.1-1.5,1.1-2.5v-19.9c0-1-0.4-1.8-1.1-2.5c-0.7-0.7-1.5-1.1-2.5-1.1h-44.8V161.5z M209,183.8c0.7-0.7,1-1.5,1-2.5v-19.9
	c0-1-0.4-1.8-1-2.5c-0.7-0.7-1.5-1.1-2.5-1.1h-83.4c-1,0-1.8,0.4-2.5,1.1c-0.7,0.7-1,1.5-1,2.5v19.9c0,1,0.3,1.8,1,2.5
	c0.7,0.7,1.5,1.1,2.5,1.1h24.1V223h-24.1c-1,0-1.8,0.4-2.5,1.1c-0.7,0.7-1,1.5-1,2.5v19.9c0,1,0.3,1.8,1,2.5
	c0.7,0.7,1.5,1.1,2.5,1.1h83.4c1,0,1.8-0.4,2.5-1.1c0.7-0.7,1-1.5,1-2.5v-19.9c0-1-0.4-1.8-1-2.5c-0.7-0.7-1.5-1.1-2.5-1.1h-23.8
	v-38.1h23.8C207.4,184.9,208.3,184.5,209,183.8 M11.4,159c-0.7,0.7-1.1,1.5-1.1,2.5v84.9c0,1,0.4,1.8,1.1,2.5
	c0.7,0.7,1.5,1.1,2.5,1.1h28.4c1,0,1.8-0.4,2.5-1.1c0.7-0.7,1-1.5,1-2.5v-26h43.1c1,0,1.8-0.3,2.5-1.1c0.7-0.7,1.1-1.5,1.1-2.5V197
	c0-1-0.4-1.8-1.1-2.5c-0.7-0.7-1.5-1.1-2.5-1.1H45.8V185h51.7c1,0,1.8-0.4,2.5-1.1c0.7-0.7,1-1.5,1-2.5v-20c0-1-0.4-1.8-1-2.5
	c-0.7-0.7-1.5-1.1-2.5-1.1H13.9C12.9,157.9,12.1,158.3,11.4,159"/>
<path class="st1" d="M991.2,26c0.7-0.7,1-1.5,1-2.5V3.7c0-1-0.4-1.8-1-2.5c-0.7-0.7-1.5-1.1-2.5-1.1h-83.4c-1,0-1.8,0.4-2.5,1.1
	c-0.7,0.7-1,1.5-1,2.5v19.8c0,1,0.3,1.8,1,2.5c0.7,0.7,1.5,1.1,2.5,1.1h24.1v38.1h-24.1c-1,0-1.8,0.4-2.5,1.1c-0.7,0.7-1,1.5-1,2.5
	v19.9c0,1,0.3,1.8,1,2.5c0.7,0.7,1.5,1.1,2.5,1.1h83.4c1,0,1.8-0.4,2.5-1.1c0.7-0.7,1-1.5,1-2.5V68.8c0-1-0.4-1.8-1-2.5
	c-0.7-0.7-1.5-1.1-2.5-1.1h-23.8V27.1h23.8C989.7,27.1,990.5,26.7,991.2,26 M842.5,34.4c-6.8-0.8-11.4-1.5-13.7-2.2
	c-2.3-0.7-3.4-1.7-3.4-3c0-2.4,2.9-3.6,8.8-3.6c4.2,0,7.4,0.9,9.5,2.7c1.1,1,2.5,1.5,4.1,1.5h28.3c1,0,1.7-0.3,2.3-0.8
	c0.6-0.5,0.9-1.2,0.9-2.1c0-6.4-4.1-12.5-12.4-18.3c-8.2-5.8-19-8.7-32.4-8.7s-24,2.7-32,8.1c-8,5.4-12,12.4-12,21.1
	c0,15.5,12.4,24.7,37.2,27.6c7.8,0.8,13,1.7,15.6,2.6c2.6,0.9,3.9,2.1,3.9,3.6c0,2.5-4.2,3.7-12.5,3.7c-6,0-10.3-1.1-12.8-3.4
	c-1.1-1.1-2.6-1.6-4.5-1.6h-27c-2,0-3,1-3,2.9c0,7.8,4,14.4,12.2,19.7c8.1,5.3,19.5,8,34.1,8c14.6,0,26.4-2.7,35.2-8.1
	c8.9-5.4,13.3-12.5,13.3-21.2c0-8.7-3-15.3-9.1-19.6C867.1,39,856.9,36,842.5,34.4 M714.6,52.8l9.3-27.3l9.3,27.3H714.6z
	 M704.6,87.7l3.3-9.2H740l3.3,9.2c1.1,3,3.1,4.5,5.9,4.5H774c0.8,0,1.5-0.3,2-0.9c0.6-0.6,0.9-1.1,0.9-1.6s0-0.9-0.1-1.2l-28.7-84
	c-0.8-2.9-2.8-4.3-5.9-4.3h-36.6c-3.2,0-5.1,1.4-5.9,4.3l-28.7,84c-0.1,0.3-0.1,0.7-0.1,1.2s0.3,1.1,0.9,1.6c0.6,0.6,1.2,0.9,2,0.9
	h24.9C701.5,92.2,703.5,90.7,704.6,87.7 M656,26c0.7-0.7,1.1-1.5,1.1-2.5V3.7c0-1-0.4-1.8-1.1-2.5c-0.7-0.7-1.5-1.1-2.5-1.1h-83.4
	c-1,0-1.8,0.4-2.5,1.1c-0.7,0.7-1.1,1.5-1.1,2.5v19.8c0,1,0.4,1.8,1.1,2.5c0.7,0.7,1.5,1.1,2.5,1.1h24.1v38.1h-24.1
	c-1,0-1.8,0.4-2.5,1.1c-0.7,0.7-1.1,1.5-1.1,2.5v19.9c0,1,0.4,1.8,1.1,2.5c0.7,0.7,1.5,1.1,2.5,1.1h83.4c1,0,1.8-0.4,2.5-1.1
	c0.7-0.7,1.1-1.5,1.1-2.5V68.8c0-1-0.4-1.8-1.1-2.5c-0.7-0.7-1.5-1.1-2.5-1.1h-23.8V27.1h23.8C654.4,27.1,655.3,26.7,656,26
	 M507.3,34.4c-6.8-0.8-11.4-1.5-13.7-2.2c-2.3-0.7-3.4-1.7-3.4-3c0-2.4,2.9-3.6,8.8-3.6c4.2,0,7.4,0.9,9.5,2.7
	c1.1,1,2.5,1.5,4.1,1.5h28.3c1,0,1.7-0.3,2.3-0.8c0.6-0.5,0.9-1.2,0.9-2.1c0-6.4-4.1-12.5-12.4-18.3c-8.2-5.8-19-8.7-32.4-8.7
	s-24,2.7-32,8.1c-8,5.4-12,12.4-12,21.1c0,15.5,12.4,24.7,37.2,27.6c7.8,0.8,13,1.7,15.6,2.6c2.6,0.9,3.9,2.1,3.9,3.6
	c0,2.5-4.2,3.7-12.5,3.7c-6.1,0-10.3-1.1-12.8-3.4c-1.1-1.1-2.6-1.6-4.5-1.6h-27c-2,0-3,1-3,2.9c0,7.8,4.1,14.4,12.2,19.7
	c8.1,5.3,19.5,8,34.1,8c14.6,0,26.4-2.7,35.2-8.1c8.9-5.4,13.3-12.5,13.3-21.2c0-8.7-3-15.3-9.1-19.6C531.9,39,521.7,36,507.3,34.4
	 M378.4,58.2h43.9c1,0,1.8-0.3,2.5-1.1c0.7-0.7,1.1-1.5,1.1-2.5V37.6c0-1-0.4-1.8-1.1-2.5c-0.7-0.7-1.5-1-2.5-1h-43.9v-8.3h51.1
	c1,0,1.8-0.4,2.5-1.1c0.7-0.7,1.1-1.5,1.1-2.5V3.7c0-1-0.4-1.8-1.1-2.5c-0.7-0.7-1.5-1.1-2.5-1.1h-81.8c-1,0-1.8,0.4-2.5,1.1
	c-0.7,0.7-1.1,1.5-1.1,2.5v84.9c0,1,0.4,1.8,1.1,2.5c0.7,0.7,1.5,1.1,2.5,1.1h83.1c1,0,1.8-0.4,2.5-1.1c0.7-0.7,1-1.5,1-2.5V70.1
	c0-1-0.4-1.8-1-2.5c-0.7-0.7-1.5-1.1-2.5-1.1h-52.5V58.2z M284.6,24.6c2,0,3.5,0.7,4.5,2.2c1,1.4,1.5,3.1,1.5,5.1
	c0,1.9-0.5,3.5-1.6,4.8c-1.1,1.3-2.5,1.9-4.5,1.9h-16.4V24.6H284.6z M312.6,57.8c9.2-5.3,13.8-14,13.8-25.9
	c0-9.8-3.5-17.6-10.5-23.3c-7-5.7-16.5-8.5-28.5-8.5h-51.1c-1,0-1.8,0.4-2.5,1.1c-0.7,0.7-1.1,1.5-1.1,2.5v84.9c0,1,0.4,1.8,1.1,2.5
	c0.7,0.7,1.5,1.1,2.5,1.1h28.4c1,0,1.8-0.4,2.5-1.1c0.7-0.7,1.1-1.5,1.1-2.5V62.8h11l11.6,26c1,2.2,2.9,3.3,5.5,3.3h29.8
	c0.8,0,1.5-0.3,2-0.9c0.6-0.6,0.9-1.2,0.9-1.8c0-0.6-0.1-1.1-0.3-1.4L312.6,57.8z M177.7,24.6c2.1,0,3.8,0.7,5,2.1
	c1.2,1.4,1.8,3.2,1.8,5.4s-0.6,3.9-1.9,5.1c-1.3,1.2-2.9,1.8-4.9,1.8H161V24.6H177.7z M126.5,1.2c-0.7,0.7-1,1.5-1,2.5v84.9
	c0,1,0.3,1.8,1,2.5c0.7,0.7,1.5,1.1,2.5,1.1h28.3c1,0,1.8-0.4,2.5-1.1c0.7-0.7,1.1-1.5,1.1-2.5V63.4h17.4c14.7,0,25.2-2.8,31.3-8.4
	c6.1-5.6,9.2-13.1,9.2-22.5s-3.6-17.2-10.9-23.3c-7.3-6-17.1-9.1-29.6-9.1H129C128.1,0.1,127.2,0.5,126.5,1.2 M44.1,52.8l9.3-27.3
	l9.3,27.3H44.1z M34.1,87.7l3.3-9.2h32.1l3.3,9.2c1.1,3,3.1,4.5,5.9,4.5h24.9c0.8,0,1.5-0.3,2-0.9c0.6-0.6,0.9-1.1,0.9-1.6
	s0-0.9-0.1-1.2l-28.7-84c-0.8-2.9-2.8-4.3-5.9-4.3H35.2c-3.2,0-5.1,1.4-5.9,4.3l-28.7,84c-0.1,0.3-0.1,0.7-0.1,1.2s0.3,1.1,0.9,1.6
	c0.6,0.6,1.3,0.9,2,0.9h24.8C31,92.2,33,90.7,34.1,87.7"/>
</svg>
