<svg xmlns="http://www.w3.org/2000/svg" viewBox="0 0 100 100"><g data-name="Layer 2"><g data-name="Layer 1"><path fill="#61d8ff" d="M100 100V0H0v100"/><path d="M50.8 64a2.08 2.08 0 00.55-.31 1.31 1.31 0 00.35-.44l-.09-.08V64h.6v-2.94a1.31 1.31 0 00-.21-.74 1.39 1.39 0 00-.56-.51 1.84 1.84 0 00-.83-.18 2 2 0 00-.69.13 2.08 2.08 0 00-.59.36 1.26 1.26 0 00-.38.49l.54.29a1.24 1.24 0 01.44-.5 1.19 1.19 0 01.68-.2 1 1 0 01.72.24.77.77 0 01.28.62v1.08a1.41 1.41 0 01-.18.71 1.29 1.29 0 01-.51.5 1.45 1.45 0 01-.76.19.88.88 0 01-.59-.2.61.61 0 01-.22-.48.69.69 0 01.2-.51 1.23 1.23 0 01.66-.3l1.53-.25v-.54l-1.67.28a2 2 0 00-.77.27 1.31 1.31 0 00-.45.46 1.4 1.4 0 00-.14.61 1.1 1.1 0 00.18.62 1.4 1.4 0 00.5.43 1.73 1.73 0 00.73.15 2.06 2.06 0 00.68-.08m-3.53-4.24h-.6V64h.6zm-2.8 4.2a1.31 1.31 0 00.54-.44 1.05 1.05 0 00.2-.63 1.08 1.08 0 00-.29-.74 1.79 1.79 0 00-.81-.47l-.71-.21-.26-.09a.92.92 0 01-.25-.19.49.49 0 01-.11-.35.6.6 0 01.21-.46.85.85 0 01.57-.18 1.1 1.1 0 01.66.21 1.22 1.22 0 01.46.56l.51-.24a1.53 1.53 0 00-.62-.79 1.86 1.86 0 00-1-.28 1.73 1.73 0 00-.73.15 1.27 1.27 0 00-.51.43 1.11 1.11 0 00-.19.65 1 1 0 00.26.7 1.71 1.71 0 00.85.47l.61.18a1.68 1.68 0 01.29.1 1 1 0 01.3.2.51.51 0 01.12.35.55.55 0 01-.26.49 1 1 0 01-.64.19 1.26 1.26 0 01-.73-.23 1.49 1.49 0 01-.51-.62l-.5.24a1.79 1.79 0 00.67.84 1.82 1.82 0 001.07.31 1.9 1.9 0 00.78-.15m-4.81 0a1.76 1.76 0 00.63-.39 1.73 1.73 0 00.39-.52l-.51-.27a1.82 1.82 0 01-.52.55 1.31 1.31 0 01-.78.22 1.46 1.46 0 01-1.32-.79 2.58 2.58 0 010-1.76 1.33 1.33 0 01.53-.57 1.35 1.35 0 01.73-.21 1.26 1.26 0 01.72.2 1.45 1.45 0 01.49.55 1.35 1.35 0 01.1.78l.28-.24h-3.25V62h3.6v-.38a2.07 2.07 0 00-.14-.74 2.09 2.09 0 00-.39-.66 1.87 1.87 0 00-1.44-.63 2 2 0 00-1 .29 2.06 2.06 0 00-.74.78 2.34 2.34 0 00-.27 1.14A2.42 2.42 0 0037 63a2.05 2.05 0 001.84 1.09 2 2 0 00.79-.15m-7.15 0v-2.49a1.33 1.33 0 01.15-.65.94.94 0 01.39-.42 1.14 1.14 0 01.58-.15 1.11 1.11 0 01.58.15.91.91 0 01.39.41 1.46 1.46 0 01.14.66V64h.59v-2.78a1.58 1.58 0 00-.21-.81 1.56 1.56 0 00-.57-.57 1.58 1.58 0 00-.81-.21 1.48 1.48 0 00-.84.24 1.33 1.33 0 00-.52.65h.13v-.82h-.59V64zm-5-.71a1.57 1.57 0 01-.55-.59A1.75 1.75 0 0127 61a1.61 1.61 0 01.55-.58 1.54 1.54 0 011.55 0 1.61 1.61 0 01.55.58 1.82 1.82 0 010 1.66 1.57 1.57 0 01-.55.59 1.54 1.54 0 01-1.55 0m1.86.52a2.11 2.11 0 00.78-.79 2.19 2.19 0 00.3-1.15 2.31 2.31 0 00-.29-1.15 2.06 2.06 0 00-.77-.78 2.25 2.25 0 00-2.21 0 2.11 2.11 0 00-.78.79 2.3 2.3 0 00-.29 1.14 2.22 2.22 0 00.3 1.15 2.11 2.11 0 00.78.79 2.19 2.19 0 002.18 0m-7.62-.52a1.56 1.56 0 01-.53-.58 1.78 1.78 0 01-.2-.83 1.77 1.77 0 01.2-.84 1.51 1.51 0 01.54-.58 1.4 1.4 0 01.76-.21 1.46 1.46 0 01.77.21 1.49 1.49 0 01.55.59 1.73 1.73 0 01.2.83 1.78 1.78 0 01-.2.83 1.53 1.53 0 01-.55.58 1.46 1.46 0 01-.77.21 1.44 1.44 0 01-.77-.21m1.72.56a1.59 1.59 0 00.67-.71L24 63v1h.6v-6H24v2.71l.1-.17a1.82 1.82 0 00-.68-.64 1.94 1.94 0 00-1-.24 2 2 0 00-1.08.29 2.11 2.11 0 00-.75.79 2.56 2.56 0 000 2.29 2.19 2.19 0 00.75.79 2.08 2.08 0 001.08.29 1.91 1.91 0 001-.25m-7.27.14v-2.55a1.45 1.45 0 01.14-.65 1 1 0 01.4-.42 1.2 1.2 0 011.16 0 1 1 0 01.38.41 1.34 1.34 0 01.14.66V64H19v-2.78a1.58 1.58 0 00-.21-.81 1.56 1.56 0 00-.57-.57 1.61 1.61 0 00-.82-.21 1.5 1.5 0 00-.84.24 1.39 1.39 0 00-.52.65h.14v-.82h-.6V64zm-2.4-5.91h-.64V64h.64zm9.32-4.7v-2.53a1.49 1.49 0 01.14-.66 1.13 1.13 0 01.39-.42 1 1 0 011.47.42 1.34 1.34 0 01.14.66v2.53h.6v-2.53a1.49 1.49 0 01.19-.66 1.13 1.13 0 01.39-.42 1 1 0 01.55-.14 1 1 0 01.55.14 1.11 1.11 0 01.38.42 1.47 1.47 0 01.13.66v2.53h.6v-2.76a1.53 1.53 0 00-.22-.82 1.49 1.49 0 00-.58-.56A1.53 1.53 0 0027 49a1.56 1.56 0 00-.87.26 1.38 1.38 0 00-.55.75h.17a1.5 1.5 0 00-.57-.72 1.47 1.47 0 00-.89-.28 1.45 1.45 0 00-.76.21 1.28 1.28 0 00-.52.58l.1.11v-.8h-.6v4.25zm-2.28-6h-.59v6h.59zm-2.25 1.76h-.6v4.25h.6zm-4.79 4.25v-2.68h2.78v-.59h-2.78v-2.06h3v-.6h-3.64v5.92zm35.7-14.86h-.59v4.26h.59zm-2.79 4.2a1.33 1.33 0 00.53-.43 1.1 1.1 0 00-.09-1.38 1.83 1.83 0 00-.81-.47l-.71-.2a1.18 1.18 0 01-.25-.1.61.61 0 01-.26-.19.47.47 0 01-.11-.34.59.59 0 01.21-.46.85.85 0 01.57-.18 1.13 1.13 0 01.67.2 1.2 1.2 0 01.45.56l.51-.24a1.54 1.54 0 00-.62-.78 1.78 1.78 0 00-1-.28 1.73 1.73 0 00-.73.15 1.19 1.19 0 00-.51.43 1.08 1.08 0 00-.19.65 1 1 0 00.26.7 1.79 1.79 0 00.85.47l.61.17a2.52 2.52 0 01.29.1.9.9 0 01.3.21.48.48 0 01.13.35.58.58 0 01-.27.49 1.1 1.1 0 01-.64.19 1.29 1.29 0 01-.73-.23 1.55 1.55 0 01-.51-.62l-.5.23a1.77 1.77 0 00.67.85 1.9 1.9 0 001.07.31 2 2 0 00.79-.16m-5.29 0a2 2 0 00.55-.31 1.28 1.28 0 00.35-.43h-.07v.85h.6v-2.97a1.36 1.36 0 00-.78-1.25 1.84 1.84 0 00-.83-.18 1.8 1.8 0 00-.69.13 1.92 1.92 0 00-.59.35 1.33 1.33 0 00-.38.49l.54.3a1.14 1.14 0 01.44-.51 1.18 1.18 0 01.68-.19 1.06 1.06 0 01.72.24.76.76 0 01.28.62V41a1.37 1.37 0 01-.69 1.21 1.56 1.56 0 01-.76.19.88.88 0 01-.59-.2.64.64 0 01-.22-.49.72.72 0 01.2-.51 1.13 1.13 0 01.66-.29l1.53-.25v-.54l-1.67.27a2.39 2.39 0 00-.77.27 1.2 1.2 0 00-.59 1.08 1.1 1.1 0 00.18.62 1.21 1.21 0 00.5.42 1.7 1.7 0 00.73.16 1.91 1.91 0 00.68-.12m-3.53-4.24h-.6v4.22h.6zM35 42.74a1.29 1.29 0 00.54-.43 1.09 1.09 0 00.19-.63 1.06 1.06 0 00-.29-.75 1.79 1.79 0 00-.8-.47l-.71-.2a1.49 1.49 0 01-.26-.1.64.64 0 01-.25-.19.47.47 0 01-.12-.34.6.6 0 01.22-.46.85.85 0 01.57-.18 1.1 1.1 0 01.66.2 1.28 1.28 0 01.46.56l.51-.24a1.54 1.54 0 00-.62-.78 1.81 1.81 0 00-1-.28 1.72 1.72 0 00-.72.15 1.22 1.22 0 00-.52.43 1.16 1.16 0 00-.19.65 1 1 0 00.27.7 1.74 1.74 0 00.85.47l.61.17.29.1a1 1 0 01.3.21.48.48 0 01.12.35.57.57 0 01-.26.49 1.1 1.1 0 01-.64.19 1.26 1.26 0 01-.73-.23 1.55 1.55 0 01-.51-.62l-.5.23a1.81 1.81 0 00.66.85 2 2 0 001.08.31 1.9 1.9 0 00.78-.16m-4.81 0a2.23 2.23 0 00.63-.39 1.77 1.77 0 00.39-.53l-.51-.27a1.85 1.85 0 01-.52.56 1.31 1.31 0 01-.78.22 1.45 1.45 0 01-.76-.21 1.42 1.42 0 01-.56-.58 1.6 1.6 0 01-.16-.89 1.51 1.51 0 01.15-.87 1.42 1.42 0 01.53-.58 1.35 1.35 0 01.73-.21 1.29 1.29 0 01.72.21 1.35 1.35 0 01.49.54 1.3 1.3 0 01.09.79l.38-.23h-3.3v.55h3.6v-.38a2.1 2.1 0 00-.13-.74 2 2 0 00-.39-.65 1.89 1.89 0 00-.62-.46 1.8 1.8 0 00-.82-.17 2 2 0 00-1 .28 2 2 0 00-.74.79 2.52 2.52 0 000 2.29 2.16 2.16 0 00.76.8 2.08 2.08 0 001.08.29 2 2 0 00.79-.15m-5.17 0v-2.57a1.09 1.09 0 01.28-.81 1 1 0 01.73-.29h.38v-.59h-.27a1.42 1.42 0 00-.74.17 1.12 1.12 0 00-.46.48l.08.1v-.7h-.6v4.26zm-5-.71a1.64 1.64 0 01-.55-.59 1.73 1.73 0 01-.2-.83 1.76 1.76 0 01.2-.83 1.54 1.54 0 01.55-.58 1.39 1.39 0 01.78-.22 1.33 1.33 0 01.76.22 1.35 1.35 0 01.53.58 1.82 1.82 0 010 1.66 1.44 1.44 0 01-.53.59 1.4 1.4 0 01-.76.21 1.47 1.47 0 01-.78-.21m-.75 2.3v-2.49l-.09.08a1.54 1.54 0 00.66.72 2.1 2.1 0 002.06 0 2.06 2.06 0 00.75-.8 2.46 2.46 0 000-2.28 2 2 0 00-.75-.79 1.93 1.93 0 00-1.07-.29 2 2 0 00-1 .24 1.72 1.72 0 00-.67.64l.09.17v-1h-.6v5.85zm-4.23-7h-.19l1.2 3.4h-2.2zm-1.91 5.46l.51-1.45h2.65l.51 1.45h.67l-2.17-5.92h-.68L12.5 42.8zm64.3-17.69h10v-1.72h-10zm2.65-11.63h6.06v-1.72h-6.06zm4-1.72h-2v13.35h2zm-36 13.35V19h5.29v-1.68h-5.23v-3.84h10.29v-1.72H46.15v13.35zm-35.68 0h2.05l2.73-8.82.81-2.94.8 2.92 2.7 8.84h2.08l-4.07-13.35h-2.91zM24.79 20h-10.3v1.72h10.3zm52.68 19.92H87.5v1.72H77.47zm2.86 10.66h7.17v1.72h-7.17zm-5.14 10.66H87.5v1.72H75.19zm10.07 26.5a3.92 3.92 0 001.65-1.4 3.71 3.71 0 00.59-2.06 3.19 3.19 0 00-.38-1.54 3.1 3.1 0 00-1-1.13 3.64 3.64 0 00-1.54-.61 3.13 3.13 0 001.21-.64 3.22 3.22 0 00.82-1.07 3 3 0 00.3-1.32 3 3 0 00-.53-1.81A3.45 3.45 0 0084.92 75a5.22 5.22 0 00-2.21-.43 5.34 5.34 0 00-2.27.48 4.19 4.19 0 00-1.7 1.45 4.59 4.59 0 00-.74 2.39h2a2.71 2.71 0 01.82-1.89 2.62 2.62 0 011.87-.67 2.23 2.23 0 011.54.52 1.74 1.74 0 01.6 1.39 2 2 0 01-.3 1.06 2.1 2.1 0 01-.86.78 2.82 2.82 0 01-1.34.3h-.76V82h.7a5 5 0 011.59.25A2.45 2.45 0 0185 83a1.86 1.86 0 01.43 1.27 2 2 0 01-.74 1.61 2.89 2.89 0 01-2 .63 2.93 2.93 0 01-1.43-.34 2.46 2.46 0 01-1-1 3 3 0 01-.38-1.46h-2a4.46 4.46 0 00.65 2.46 4.25 4.25 0 001.75 1.53 5.56 5.56 0 002.41.53 6 6 0 002.53-.5M65.6 88v-1.7h-6.38a30.59 30.59 0 003.68-2.89 9.92 9.92 0 002-2.52 5.2 5.2 0 00.63-2.45 3.78 3.78 0 00-.54-2 3.61 3.61 0 00-1.54-1.37 5.45 5.45 0 00-2.37-.48 5.56 5.56 0 00-2.43.52A4.16 4.16 0 0057 76.63a5.11 5.11 0 00-.72 2.43h2A2.93 2.93 0 0159.1 77a2.8 2.8 0 012-.72 2.39 2.39 0 011.77.62 2.2 2.2 0 01.64 1.65 3.88 3.88 0 01-.72 2 13.86 13.86 0 01-2.31 2.58q-1.59 1.44-4.2 3.39V88zm-28.79-2.82a7.85 7.85 0 01-.75-3.77 7.87 7.87 0 01.75-3.8 2.56 2.56 0 014.49 0 7.74 7.74 0 01.76 3.8 7.72 7.72 0 01-.76 3.77 2.53 2.53 0 01-4.49 0m5 2.22a5.31 5.31 0 001.72-2.4 11.11 11.11 0 000-7.26 5.3 5.3 0 00-1.73-2.34 5 5 0 00-5.5 0 5.29 5.29 0 00-1.74 2.37 11 11 0 000 7.24 5.3 5.3 0 001.74 2.39 4.92 4.92 0 005.5 0m-19.95.6v-1.7h-6.38a29.81 29.81 0 003.68-2.89 9.71 9.71 0 002-2.52 5.2 5.2 0 00.63-2.45 3.86 3.86 0 00-.53-2 3.64 3.64 0 00-1.55-1.37 5.43 5.43 0 00-2.36-.48 5.64 5.64 0 00-2.44.52 4.08 4.08 0 00-1.7 1.54 5.11 5.11 0 00-.73 2.43h2a2.84 2.84 0 01.89-2.08 2.78 2.78 0 012-.72 2.42 2.42 0 011.77.62 2.23 2.23 0 01.63 1.65 3.88 3.88 0 01-.72 2 13.86 13.86 0 01-2.31 2.58q-1.59 1.44-4.2 3.39V88z"/></g></g></svg>