<?xml version="1.0" encoding="utf-8"?>
<!-- Generator: Adobe Illustrator 22.1.0, SVG Export Plug-In . SVG Version: 6.00 Build 0)  -->
<svg version="1.1" id="Layer_1" xmlns="http://www.w3.org/2000/svg" xmlns:xlink="http://www.w3.org/1999/xlink" x="0px" y="0px"
	 viewBox="0 0 360 40" style="enable-background:new 0 0 360 40;" xml:space="preserve">
<g>
	<path d="M14.9,14.2l2.2-8l2.2,7.9l3.1,10.2H11.7L14.9,14.2z M13.1,1.9L1.9,38.1h5.6l2.8-9.1h13.5l2.8,9.1h5.7L29.4,29h5.9v-4.7
		h-7.3L21,1.9H13.1z M93.3,1.9v36.3h5.5V21.7h14.4V17H98.8V6.5h28V1.9H93.3z M185.6,1.9v4.7h5.5v26.9h-12.7v4.7h12.7h5.5h9v-4.7h-9
		V6.5h5.4V1.9H185.6z"/>
	<g>
		<path d="M309.2,38c0.3-0.1,0.5-0.2,0.7-0.4c0.2-0.2,0.4-0.4,0.5-0.6l-0.1-0.1V38h0.8v-3.9c0-0.4-0.1-0.7-0.3-1
			c-0.2-0.3-0.4-0.5-0.8-0.7c-0.3-0.2-0.7-0.2-1.1-0.2c-0.3,0-0.6,0.1-0.9,0.2c-0.3,0.1-0.6,0.3-0.8,0.5c-0.2,0.2-0.4,0.4-0.5,0.7
			l0.7,0.4c0.1-0.3,0.3-0.5,0.6-0.7s0.6-0.3,0.9-0.3c0.4,0,0.7,0.1,1,0.3c0.2,0.2,0.4,0.5,0.4,0.8v1.4c0,0.3-0.1,0.7-0.2,0.9
			c-0.2,0.3-0.4,0.5-0.7,0.7c-0.3,0.2-0.6,0.2-1,0.2c-0.3,0-0.6-0.1-0.8-0.3c-0.2-0.2-0.3-0.4-0.3-0.6c0-0.3,0.1-0.5,0.3-0.7
			c0.2-0.2,0.5-0.3,0.9-0.4l2-0.3v-0.7l-2.2,0.4c-0.4,0.1-0.8,0.2-1,0.4c-0.3,0.2-0.5,0.4-0.6,0.6s-0.2,0.5-0.2,0.8
			c0,0.3,0.1,0.6,0.2,0.8c0.2,0.2,0.4,0.4,0.7,0.6c0.3,0.1,0.6,0.2,1,0.2C308.6,38.1,308.9,38.1,309.2,38 M304.5,32.3h-0.8V38h0.8
			V32.3z M300.8,37.9c0.3-0.1,0.5-0.3,0.7-0.6c0.2-0.2,0.3-0.5,0.3-0.8c0-0.4-0.1-0.7-0.4-1c-0.3-0.3-0.6-0.5-1.1-0.6l-0.9-0.3
			c-0.1,0-0.2-0.1-0.3-0.1c-0.1-0.1-0.2-0.1-0.3-0.3c-0.1-0.1-0.1-0.3-0.1-0.5c0-0.2,0.1-0.5,0.3-0.6c0.2-0.2,0.4-0.2,0.8-0.2
			c0.3,0,0.6,0.1,0.9,0.3c0.3,0.2,0.5,0.4,0.6,0.7l0.7-0.3c-0.2-0.4-0.4-0.8-0.8-1c-0.4-0.2-0.8-0.4-1.3-0.4c-0.4,0-0.7,0.1-1,0.2
			c-0.3,0.1-0.5,0.3-0.7,0.6c-0.2,0.2-0.3,0.5-0.3,0.9c0,0.4,0.1,0.7,0.3,0.9c0.2,0.3,0.6,0.5,1.1,0.6l0.8,0.2
			c0.1,0,0.2,0.1,0.4,0.1c0.1,0.1,0.3,0.2,0.4,0.3c0.1,0.1,0.2,0.3,0.2,0.5c0,0.3-0.1,0.5-0.3,0.7c-0.2,0.2-0.5,0.2-0.9,0.2
			c-0.4,0-0.7-0.1-1-0.3c-0.3-0.2-0.5-0.5-0.7-0.8l-0.7,0.3c0.2,0.5,0.5,0.8,0.9,1.1c0.4,0.3,0.9,0.4,1.4,0.4
			C300.1,38.1,300.4,38.1,300.8,37.9 M294.3,37.9c0.3-0.1,0.6-0.3,0.8-0.5c0.2-0.2,0.4-0.5,0.5-0.7l-0.7-0.4
			c-0.2,0.3-0.4,0.5-0.7,0.7c-0.3,0.2-0.6,0.3-1,0.3c-0.4,0-0.7-0.1-1-0.3c-0.3-0.2-0.6-0.4-0.7-0.8c-0.2-0.3-0.3-0.7-0.2-1.2
			c0-0.5,0-0.8,0.2-1.2c0.2-0.3,0.4-0.6,0.7-0.8c0.3-0.2,0.6-0.3,1-0.3c0.4,0,0.7,0.1,1,0.3c0.3,0.2,0.5,0.4,0.7,0.7
			c0.2,0.3,0.2,0.7,0.1,1l0.4-0.3H291v0.7h4.8c0-0.1,0-0.2,0-0.3c0-0.1,0-0.2,0-0.2c0-0.3-0.1-0.7-0.2-1s-0.3-0.6-0.5-0.9
			s-0.5-0.5-0.8-0.6c-0.3-0.2-0.7-0.2-1.1-0.2c-0.5,0-1,0.1-1.4,0.4c-0.4,0.3-0.7,0.6-1,1c-0.2,0.4-0.4,0.9-0.4,1.5s0.1,1.1,0.4,1.5
			c0.2,0.5,0.6,0.8,1,1.1c0.4,0.3,0.9,0.4,1.4,0.4C293.7,38.1,294,38.1,294.3,37.9 M284.8,38v-3.4c0-0.3,0.1-0.6,0.2-0.9
			c0.1-0.2,0.3-0.4,0.5-0.6c0.2-0.1,0.5-0.2,0.8-0.2c0.3,0,0.5,0.1,0.8,0.2c0.2,0.1,0.4,0.3,0.5,0.6c0.1,0.2,0.2,0.5,0.2,0.9V38h0.8
			v-3.7c0-0.4-0.1-0.8-0.3-1.1c-0.2-0.3-0.4-0.6-0.8-0.8c-0.3-0.2-0.7-0.3-1.1-0.3c-0.4,0-0.8,0.1-1.1,0.3c-0.3,0.2-0.6,0.5-0.7,0.9
			l0.2,0v-1.1H284V38H284.8z M278.1,37.1c-0.3-0.2-0.6-0.5-0.7-0.8c-0.2-0.3-0.3-0.7-0.3-1.1c0-0.4,0.1-0.8,0.3-1.1
			c0.2-0.3,0.4-0.6,0.7-0.8c0.3-0.2,0.7-0.3,1-0.3c0.4,0,0.7,0.1,1,0.3c0.3,0.2,0.6,0.4,0.7,0.8c0.2,0.3,0.3,0.7,0.3,1.1
			c0,0.4-0.1,0.8-0.3,1.1c-0.2,0.3-0.4,0.6-0.7,0.8c-0.3,0.2-0.7,0.3-1,0.3C278.8,37.3,278.4,37.2,278.1,37.1 M280.6,37.8
			c0.4-0.3,0.8-0.6,1-1.1c0.3-0.4,0.4-1,0.4-1.5c0-0.6-0.1-1.1-0.4-1.5c-0.2-0.4-0.6-0.8-1-1c-0.4-0.3-0.9-0.4-1.5-0.4
			c-0.6,0-1,0.1-1.5,0.4c-0.4,0.3-0.8,0.6-1,1.1c-0.3,0.4-0.4,1-0.4,1.5c0,0.6,0.1,1.1,0.4,1.5c0.3,0.4,0.6,0.8,1,1.1
			c0.4,0.3,0.9,0.4,1.5,0.4C279.7,38.1,280.2,38,280.6,37.8 M270.5,37.1c-0.3-0.2-0.5-0.4-0.7-0.8c-0.2-0.3-0.3-0.7-0.3-1.1
			c0-0.4,0.1-0.8,0.3-1.1c0.2-0.3,0.4-0.6,0.7-0.8c0.3-0.2,0.6-0.3,1-0.3c0.4,0,0.7,0.1,1,0.3c0.3,0.2,0.6,0.5,0.7,0.8
			c0.2,0.3,0.3,0.7,0.3,1.1c0,0.4-0.1,0.8-0.3,1.1c-0.2,0.3-0.4,0.6-0.7,0.8c-0.3,0.2-0.7,0.3-1,0.3
			C271.1,37.3,270.8,37.2,270.5,37.1 M272.8,37.8c0.4-0.2,0.7-0.5,0.9-0.9l-0.1-0.1V38h0.8v-8h-0.8v3.6l0.1-0.2
			c-0.2-0.4-0.5-0.6-0.9-0.9c-0.4-0.2-0.8-0.3-1.3-0.3c-0.5,0-1,0.1-1.4,0.4c-0.4,0.3-0.8,0.6-1,1.1c-0.2,0.4-0.4,1-0.4,1.5
			c0,0.6,0.1,1.1,0.4,1.5c0.2,0.4,0.6,0.8,1,1.1c0.4,0.3,0.9,0.4,1.4,0.4C271.9,38.1,272.4,38,272.8,37.8 M263,38v-3.4
			c0-0.3,0.1-0.6,0.2-0.9c0.1-0.2,0.3-0.4,0.5-0.6c0.2-0.1,0.5-0.2,0.8-0.2c0.3,0,0.5,0.1,0.8,0.2c0.2,0.1,0.4,0.3,0.5,0.6
			c0.1,0.2,0.2,0.5,0.2,0.9V38h0.8v-3.7c0-0.4-0.1-0.8-0.3-1.1c-0.2-0.3-0.4-0.6-0.8-0.8c-0.3-0.2-0.7-0.3-1.1-0.3
			c-0.4,0-0.8,0.1-1.1,0.3c-0.3,0.2-0.6,0.5-0.7,0.9l0.2,0v-1.1h-0.8V38H263z M259.8,30.1h-0.8V38h0.8V30.1z"/>
		<path d="M272.2,23.9v-3.4c0-0.3,0.1-0.6,0.2-0.9c0.1-0.2,0.3-0.4,0.5-0.6c0.2-0.1,0.5-0.2,0.7-0.2c0.3,0,0.5,0.1,0.7,0.2
			c0.2,0.1,0.4,0.3,0.5,0.6c0.1,0.2,0.2,0.5,0.2,0.9v3.4h0.8v-3.4c0-0.3,0.1-0.6,0.2-0.9c0.1-0.2,0.3-0.4,0.5-0.6
			c0.2-0.1,0.5-0.2,0.7-0.2c0.3,0,0.5,0.1,0.7,0.2c0.2,0.1,0.4,0.3,0.5,0.6c0.1,0.2,0.2,0.5,0.2,0.9v3.4h0.8v-3.7
			c0-0.4-0.1-0.8-0.3-1.1c-0.2-0.3-0.5-0.6-0.8-0.8c-0.3-0.2-0.7-0.3-1.1-0.3c-0.4,0-0.8,0.1-1.2,0.3c-0.3,0.2-0.6,0.6-0.7,1l0.2,0
			c-0.1-0.4-0.4-0.7-0.8-1c-0.4-0.2-0.7-0.4-1.2-0.4c-0.4,0-0.7,0.1-1,0.3c-0.3,0.2-0.5,0.4-0.7,0.8l0.1,0.2v-1.1h-0.8v5.7H272.2z
			 M269.2,15.9h-0.8v8h0.8V15.9z M266.2,18.2h-0.8v5.7h0.8V18.2z M259.8,23.9v-3.6h3.7v-0.8h-3.7v-2.7h4V16h-4.9v7.9H259.8z"/>
		<path d="M307.4,4.1h-0.8v5.7h0.8V4.1z M303.7,9.7c0.3-0.1,0.5-0.3,0.7-0.6c0.2-0.2,0.3-0.5,0.3-0.8c0-0.4-0.1-0.7-0.4-1
			c-0.3-0.3-0.6-0.5-1.1-0.6l-0.9-0.3c-0.1,0-0.2-0.1-0.3-0.1c-0.1-0.1-0.2-0.1-0.3-0.3c-0.1-0.1-0.1-0.3-0.1-0.5
			c0-0.2,0.1-0.5,0.3-0.6c0.2-0.2,0.4-0.2,0.8-0.2c0.3,0,0.6,0.1,0.9,0.3c0.3,0.2,0.5,0.4,0.6,0.7l0.7-0.3c-0.2-0.4-0.4-0.8-0.8-1
			C303.4,4.1,303,4,302.5,4c-0.4,0-0.7,0.1-1,0.2c-0.3,0.1-0.5,0.3-0.7,0.6c-0.2,0.2-0.3,0.5-0.3,0.9c0,0.4,0.1,0.7,0.3,0.9
			c0.2,0.3,0.6,0.5,1.1,0.6l0.8,0.2c0.1,0,0.2,0.1,0.4,0.1c0.1,0.1,0.3,0.2,0.4,0.3c0.1,0.1,0.2,0.3,0.2,0.5c0,0.3-0.1,0.5-0.3,0.7
			c-0.2,0.2-0.5,0.2-0.9,0.2c-0.4,0-0.7-0.1-1-0.3c-0.3-0.2-0.5-0.5-0.7-0.8l-0.7,0.3c0.2,0.5,0.5,0.8,0.9,1.1
			c0.4,0.3,0.9,0.4,1.4,0.4C303,9.9,303.4,9.8,303.7,9.7 M296.6,9.7c0.3-0.1,0.5-0.2,0.7-0.4c0.2-0.2,0.4-0.4,0.5-0.6l-0.1-0.1v1.1
			h0.8V5.9c0-0.4-0.1-0.7-0.3-1c-0.2-0.3-0.4-0.5-0.8-0.7C297.1,4,296.8,4,296.4,4c-0.3,0-0.6,0.1-0.9,0.2c-0.3,0.1-0.6,0.3-0.8,0.5
			c-0.2,0.2-0.4,0.4-0.5,0.7l0.7,0.4c0.1-0.3,0.3-0.5,0.6-0.7c0.3-0.2,0.6-0.3,0.9-0.3c0.4,0,0.7,0.1,1,0.3c0.2,0.2,0.4,0.5,0.4,0.8
			v1.4c0,0.3-0.1,0.7-0.2,0.9c-0.2,0.3-0.4,0.5-0.7,0.7c-0.3,0.2-0.6,0.2-1,0.2c-0.3,0-0.6-0.1-0.8-0.3c-0.2-0.2-0.3-0.4-0.3-0.6
			c0-0.3,0.1-0.5,0.3-0.7s0.5-0.3,0.9-0.4l2-0.3V6.1l-2.2,0.4c-0.4,0.1-0.8,0.2-1,0.4c-0.3,0.2-0.5,0.4-0.6,0.6
			c-0.1,0.2-0.2,0.5-0.2,0.8c0,0.3,0.1,0.6,0.2,0.8c0.2,0.2,0.4,0.4,0.7,0.6c0.3,0.1,0.6,0.2,1,0.2C296,9.9,296.3,9.8,296.6,9.7
			 M291.9,4.1h-0.8v5.7h0.8V4.1z M288.2,9.7c0.3-0.1,0.5-0.3,0.7-0.6c0.2-0.2,0.3-0.5,0.3-0.8c0-0.4-0.1-0.7-0.4-1
			c-0.3-0.3-0.6-0.5-1.1-0.6l-0.9-0.3c-0.1,0-0.2-0.1-0.3-0.1c-0.1-0.1-0.2-0.1-0.3-0.3c-0.1-0.1-0.1-0.3-0.1-0.5
			c0-0.2,0.1-0.5,0.3-0.6c0.2-0.2,0.4-0.2,0.8-0.2c0.3,0,0.6,0.1,0.9,0.3c0.3,0.2,0.5,0.4,0.6,0.7l0.7-0.3c-0.2-0.4-0.4-0.8-0.8-1
			C287.9,4.1,287.5,4,287,4c-0.4,0-0.7,0.1-1,0.2c-0.3,0.1-0.5,0.3-0.7,0.6c-0.2,0.2-0.3,0.5-0.3,0.9c0,0.4,0.1,0.7,0.3,0.9
			c0.2,0.3,0.6,0.5,1.1,0.6l0.8,0.2c0.1,0,0.2,0.1,0.4,0.1c0.1,0.1,0.3,0.2,0.4,0.3c0.1,0.1,0.2,0.3,0.2,0.5c0,0.3-0.1,0.5-0.3,0.7
			c-0.2,0.2-0.5,0.2-0.9,0.2c-0.4,0-0.7-0.1-1-0.3s-0.5-0.5-0.7-0.8l-0.7,0.3c0.2,0.5,0.5,0.8,0.9,1.1c0.4,0.3,0.9,0.4,1.4,0.4
			C287.5,9.9,287.9,9.8,288.2,9.7 M281.8,9.7c0.3-0.1,0.6-0.3,0.8-0.5c0.2-0.2,0.4-0.4,0.5-0.7l-0.7-0.4c-0.2,0.3-0.4,0.5-0.7,0.7
			c-0.3,0.2-0.6,0.3-1,0.3c-0.4,0-0.7-0.1-1-0.3c-0.3-0.2-0.6-0.4-0.7-0.8c-0.2-0.3-0.3-0.7-0.2-1.2c0-0.5,0-0.8,0.2-1.2
			c0.2-0.3,0.4-0.6,0.7-0.8c0.3-0.2,0.6-0.3,1-0.3c0.4,0,0.7,0.1,1,0.3c0.3,0.2,0.5,0.4,0.7,0.7c0.2,0.3,0.2,0.7,0.1,1l0.4-0.3h-4.3
			v0.7h4.8c0-0.1,0-0.2,0-0.3c0-0.1,0-0.2,0-0.2c0-0.3-0.1-0.7-0.2-1s-0.3-0.6-0.5-0.9c-0.2-0.3-0.5-0.5-0.8-0.6
			C281.4,4,281,4,280.6,4c-0.5,0-1,0.1-1.4,0.4c-0.4,0.3-0.7,0.6-1,1c-0.2,0.4-0.4,0.9-0.4,1.5c0,0.6,0.1,1.1,0.4,1.5s0.6,0.8,1,1.1
			c0.4,0.3,0.9,0.4,1.4,0.4C281.1,9.9,281.4,9.8,281.8,9.7 M274.9,9.8V6.3c0-0.5,0.1-0.8,0.4-1.1c0.2-0.3,0.6-0.4,1-0.4h0.5V4h-0.4
			c-0.4,0-0.7,0.1-1,0.2c-0.3,0.2-0.5,0.4-0.6,0.6l0.1,0.1V4.1h-0.8v5.7H274.9z M268.2,8.8c-0.3-0.2-0.6-0.5-0.7-0.8
			c-0.2-0.3-0.3-0.7-0.3-1.1c0-0.4,0.1-0.8,0.3-1.1c0.2-0.3,0.4-0.6,0.7-0.8c0.3-0.2,0.7-0.3,1-0.3c0.4,0,0.7,0.1,1,0.3
			c0.3,0.2,0.5,0.4,0.7,0.8c0.2,0.3,0.3,0.7,0.3,1.1c0,0.4-0.1,0.8-0.3,1.1c-0.2,0.3-0.4,0.6-0.7,0.8c-0.3,0.2-0.6,0.3-1,0.3
			C268.9,9.1,268.5,9,268.2,8.8 M267.2,11.9V8.5l-0.1,0.1c0.2,0.4,0.5,0.7,0.9,0.9c0.4,0.2,0.8,0.3,1.3,0.3c0.5,0,1-0.1,1.4-0.4
			c0.4-0.3,0.8-0.6,1-1.1c0.2-0.4,0.4-1,0.4-1.5c0-0.6-0.1-1.1-0.4-1.5c-0.2-0.4-0.6-0.8-1-1.1S269.8,4,269.3,4
			c-0.5,0-0.9,0.1-1.3,0.3c-0.4,0.2-0.7,0.5-0.9,0.9l0.1,0.2V4.1h-0.8v7.8H267.2z M261.6,2.5h-0.3l1.6,4.5h-3L261.6,2.5z M259,9.8
			l0.7-1.9h3.5l0.7,1.9h0.9l-2.9-7.9H261l-2.9,7.9H259z"/>
	</g>
	<rect x="344.8" y="5.9" width="13.4" height="2.3"/>
	<rect x="348.6" y="20.1" width="9.6" height="2.3"/>
	<rect x="341.7" y="34.3" width="16.4" height="2.3"/>
</g>
</svg>
