<svg xmlns="http://www.w3.org/2000/svg" viewBox="0 0 100 100"><path fill="#6d6b5f" d="M100 100V0H0v100"/><path d="M50.8 64c.2-.1.4-.2.5-.3s.3-.3.3-.4l-.1-.1v.8h.6v-2.9c0-.3-.1-.5-.2-.7-.1-.2-.3-.4-.6-.5s-.5-.2-.8-.2c-.2 0-.5 0-.7.1s-.4.2-.6.4c-.2.1-.3.3-.4.5l.5.3c.1-.2.3-.4.4-.5.2-.1.4-.2.7-.2s.5.1.7.2c.2.2.3.4.3.6v1.1c0 .2-.1.5-.2.7-.1.2-.3.4-.5.5s-.5.2-.8.2c-.2 0-.4-.1-.6-.2-.1-.1-.2-.3-.2-.5s.1-.4.2-.5c.2-.2.4-.3.7-.3l1.5-.2v-.5l-1.7.3c-.3 0-.5.1-.8.3-.2.1-.3.3-.5.5-.1.2-.1.4-.1.6 0 .2.1.4.2.6.1.2.3.3.5.4.2.1.5.2.7.1.5-.1.8-.1 1-.2m-3.5-4.2h-.6V64h.6v-4.2zM44.5 64c.2-.1.4-.2.5-.4s.2-.4.2-.6c0-.3-.1-.5-.3-.7s-.5-.4-.8-.5l-.7-.2-.3-.1c-.1 0-.2-.1-.2-.2-.1-.1-.1-.2-.1-.3 0-.2.1-.3.2-.5.2-.1.4-.2.6-.2.2 0 .5.1.7.2.2.1.4.3.5.6l.5-.2c-.1-.3-.3-.6-.6-.8s-.6-.3-1-.3c-.3 0-.5 0-.7.2-.2.1-.4.2-.5.4s-.2.4-.2.7.1.5.3.7.5.4.8.5l.6.2c.1 0 .2.1.3.1s.2.1.3.2c.1.1.1.2.1.3 0 .2-.1.4-.3.5s-.4.2-.6.2c-.3 0-.5-.1-.7-.2-.2-.2-.4-.4-.5-.6h-.7c.1.3.4.6.7.8s.7.3 1.1.3c.2 0 .5 0 .8-.1m-4.9 0c.2-.1.5-.2.6-.4.2-.1.3-.3.4-.5l-.5-.3c-.1.2-.3.4-.5.5-.2.2-.5.2-.8.2-.6 0-1.1-.3-1.3-.8-.2-.6-.2-1.2 0-1.8.1-.2.3-.4.5-.6.2-.1.5-.2.7-.2.3 0 .5.1.7.2.2.1.4.3.5.5s.1.5.1.8l.3-.2h-3.2v.6h3.6v-.4c0-.3 0-.5-.1-.7s-.2-.5-.4-.7c-.4-.4-.9-.6-1.4-.6-.4 0-.7.1-1 .3s-.6.5-.7.8c-.2.4-.3.7-.3 1.1 0 .4.1.8.2 1.2.4.7 1.1 1.1 1.8 1.1.3 0 .6-.1.8-.1m-7.1-.1v-2.5c0-.2 0-.4.2-.7.1-.2.2-.3.4-.4.2-.1.4-.2.6-.2.2 0 .4 0 .6.2.2.1.3.2.4.4.1.2.1.4.1.7V64h.6v-2.8c0-.3-.1-.6-.2-.8-.1-.2-.3-.4-.6-.6-.2-.1-.5-.2-.8-.2s-.6.1-.8.2c-.2.2-.4.4-.5.7h.1v-.8H32V64l.5-.1zm-5-.7c-.2-.1-.4-.3-.5-.6-.3-.5-.2-1.1.1-1.6.1-.2.3-.4.5-.6.5-.3 1.1-.3 1.5 0 .2.1.4.3.5.6.3.5.3 1.1 0 1.7-.1.2-.3.4-.5.6-.5.2-1.1.2-1.6-.1m1.9.6c.3-.2.6-.5.8-.8.2-.3.3-.7.3-1.2 0-.4-.1-.8-.3-1.2-.2-.3-.4-.6-.8-.8-.7-.4-1.5-.4-2.2 0-.3.2-.6.5-.8.8-.2.3-.3.7-.3 1.1 0 .4.1.8.3 1.2.2.3.5.6.8.8.7.5 1.5.5 2.2.1m-7.6-.6c-.2-.1-.4-.3-.5-.6s-.2-.5-.2-.8.1-.6.2-.8.3-.4.5-.6c.2-.1.5-.2.8-.2s.5.1.8.2c.2.1.4.3.5.6s.2.5.2.8-.1.6-.2.8-.3.4-.5.6c-.2.1-.5.2-.8.2-.3.1-.6 0-.8-.2m1.7.6c.3-.2.5-.4.7-.7L24 63v1h.6v-6H24v2.7l.1-.2c-.2-.3-.4-.5-.7-.6-.3-.2-.7-.3-1-.2-.4 0-.8.1-1.1.3-.3.2-.6.5-.8.8-.4.7-.4 1.6 0 2.3.2.3.4.6.8.8.3.2.7.3 1.1.3.4-.1.7-.2 1.1-.4m-7.4.2v-2.5c0-.2 0-.4.1-.7.1-.2.2-.3.4-.4.4-.2.8-.2 1.2 0 .2.1.3.2.4.4s.2.4.1.7V64h.7v-2.8c0-.3-.1-.6-.2-.8s-.3-.4-.6-.6c-.2-.1-.5-.2-.8-.2s-.6.1-.8.2c-.2.2-.4.4-.5.7h.1v-.8h-.6V64h.5zm-2.3-5.9h-.6V64h.6v-5.9zm9.3-4.7v-2.5c0-.2 0-.5.1-.7s.2-.3.4-.4c.5-.3 1.1-.2 1.4.3l.1.1c.1.2.2.4.1.7v2.5h.6v-2.5c0-.2.1-.5.2-.7s.2-.3.4-.4c.2-.1.4-.1.5-.1.2 0 .4 0 .5.1.2.1.3.2.4.4s.1.4.1.7v2.5h.6v-2.8c0-.3-.1-.6-.2-.8s-.3-.4-.6-.6c-.1-.1-.4-.2-.7-.2s-.6.1-.9.3-.5.4-.5.8h.2c-.1-.3-.3-.5-.6-.7-.3-.2-.6-.3-.9-.3s-.5.1-.8.2c-.2.1-.4.3-.5.6l.1.1v-.8h-.6v4.2h.6zm-2.3-6h-.6v6h.6v-6zm-2.3 1.7h-.6v4.2h.6v-4.2zm-4.8 4.3v-2.7h2.8v-.6h-2.8V48h3v-.6h-3.6v5.9l.6.1zm35.8-14.9h-.6v4.3h.6v-4.3zm-2.8 4.2c.2-.1.4-.2.5-.4.3-.4.3-1-.1-1.4-.2-.2-.5-.4-.8-.5l-.7-.2c-.1 0-.2-.1-.2-.1-.1 0-.2-.1-.3-.2-.1 0-.1-.1-.1-.3s.1-.3.2-.5c.2-.1.4-.2.6-.2.2 0 .5.1.7.2.2.1.4.3.5.6l.5-.2c-.1-.3-.3-.6-.6-.8s-.6-.3-1-.3c-.3 0-.5 0-.7.2-.2.1-.4.2-.5.4s-.2.4-.2.7.1.5.3.7.5.4.8.5l.4.1c.1 0 .2.1.3.1s.2.1.3.2c.1.1.1.2.1.3 0 .2-.1.4-.3.5s-.4.2-.6.2c-.3 0-.5-.1-.7-.2-.2-.2-.4-.4-.5-.6l-.5.2c.1.3.4.6.7.8s.7.3 1.1.3c.2.1.5 0 .8-.1m-5.4 0c.2-.1.4-.2.5-.3s.3-.3.3-.4H42v.8h.6v-3c0-.5-.3-1-.8-1.2-.3-.1-.5-.2-.8-.2-.2 0-.5 0-.7.1l-.6.3c-.2.1-.3.3-.4.5l.5.3c.1-.2.2-.4.4-.5s.4-.2.7-.2.5.1.7.2c.2.2.3.4.3.6V41c0 .5-.3 1-.7 1.2-.2.1-.5.2-.8.2-.2 0-.4-.1-.6-.2-.1-.1-.2-.3-.2-.5s.1-.4.2-.5c.2-.2.4-.3.7-.3l1.5-.2v-.5l-1.7.3c-.3 0-.5.1-.8.3-.4.2-.6.6-.6 1.1 0 .2.1.4.2.6.1.2.3.3.5.4.2.1.5.2.7.2.6-.2.8-.2 1-.4m-3.5-4.1h-.6v4.2h.6v-4.2zM35 42.7c.2-.1.4-.2.5-.4s.2-.4.2-.6c0-.3-.1-.5-.3-.8-.2-.2-.5-.4-.8-.5l-.7-.2c-.1 0-.2-.1-.3-.1s-.2-.1-.2-.2c-.1-.1-.1-.2-.1-.3 0-.2.1-.3.2-.5.2-.1.4-.2.6-.2.2 0 .5.1.7.2.2.1.4.3.5.6l.5-.2c-.1-.3-.3-.6-.6-.8s-.6-.3-1-.3c-.2 0-.5 0-.7.2-.2.1-.4.2-.5.4s-.2.4-.2.7.1.5.3.7.5.4.8.5l.6.2.3.1c.1.1.2.1.3.2.1.1.1.2.1.3 0 .2-.1.4-.3.5s-.4.2-.6.2c-.3 0-.5-.1-.7-.2-.2-.2-.4-.4-.5-.6l-.5.2c.1.3.4.6.7.8s.7.3 1.1.3c.1 0 .3-.1.6-.2m-4.8 0c.2-.1.4-.2.6-.4s.3-.3.4-.5l-.5-.3c-.1.2-.3.4-.5.6-.2.2-.5.2-.8.2s-.5-.1-.8-.2c-.2-.1-.4-.3-.6-.6-.1-.3-.2-.6-.2-.9 0-.3 0-.6.1-.9.1-.2.3-.4.5-.6.2-.1.5-.2.7-.2.3 0 .5.1.7.2.2.1.4.3.5.5s.1.5.1.8l.4-.2h-3.3v.5h3.6v-.4c0-.3 0-.5-.1-.7s-.2-.5-.4-.7c-.2-.2-.4-.4-.6-.5-.3-.1-.5-.2-.8-.2-.4 0-.7.1-1 .3s-.6.5-.7.8c-.4.7-.4 1.6 0 2.3.2.3.4.6.8.8.3.2.7.3 1.1.3.3.2.6.2.8 0m-5.1 0v-2.6c0-.3.1-.6.3-.8.2-.2.5-.3.7-.3h.4v-.6h-.3c-.3 0-.5 0-.7.2-.2.1-.4.3-.5.5l.1.1v-.7h-.6v4.3l.6-.1zm-5-.7c-.2-.1-.4-.4-.5-.6-.1-.3-.2-.5-.2-.8s.1-.6.2-.8.3-.4.5-.6c.2-.1.5-.2.8-.2s.5.1.8.2c.2.1.4.3.5.6.3.5.3 1.1 0 1.7-.1.2-.3.4-.5.6-.2.1-.5.2-.8.2-.3 0-.6-.1-.8-.3m-.8 2.3v-2.5l-.1.1c.1.3.4.6.7.7.6.4 1.4.4 2.1 0 .3-.2.6-.5.8-.8.4-.7.4-1.6 0-2.3-.2-.3-.4-.6-.8-.8-.3-.2-.7-.3-1.1-.3-.3 0-.7.1-1 .2-.3.1-.5.4-.7.6l.1.2v-1h-.6v5.8l.6.1zm-4.2-7h-.2l1.2 3.4h-2.2l1.2-3.4zm-1.9 5.5l.5-1.5h2.6l.5 1.5h.7l-2.2-5.9h-.7l-2.2 5.9h.8zm64.3-17.7h10v-1.7h-10v1.7zm2.6-11.6h6.1v-1.7h-6.1v1.7zm4-1.7h-2v13.4h2V11.8zm-36 13.3V19h5.3v-1.7h-5.2v-3.8h10.3v-1.7H46.2v13.4l1.9-.1zm-35.7 0h2.1l2.7-8.8.8-2.9.8 2.9 2.7 8.8h2.1l-4.1-13.4h-2.9l-4.2 13.4zM24.8 20H14.5v1.7h10.3V20zm52.7 19.9h10v1.7h-10zm2.8 10.7h7.2v1.7h-7.2zm-5.1 10.6h12.3v1.7H75.2zm10.1 26.5c.7-.3 1.2-.8 1.7-1.4.4-.6.6-1.3.6-2.1 0-.5-.1-1.1-.4-1.5-.2-.5-.6-.8-1-1.1-.5-.3-1-.5-1.5-.6.4-.1.9-.3 1.2-.6.3-.3.6-.7.8-1.1.2-.4.3-.9.3-1.3 0-.6-.2-1.3-.5-1.8-.4-.5-.9-.9-1.5-1.2-.7-.3-1.5-.4-2.2-.4-.8 0-1.6.2-2.3.5-.7.3-1.3.8-1.7 1.4-.5.7-.8 1.5-.8 2.4h2c0-.7.3-1.4.8-1.9s1.2-.7 1.9-.7c.6 0 1.1.2 1.5.5s.6.9.6 1.4c0 .4-.1.7-.3 1.1-.2.3-.5.6-.9.8-.4.2-.9.3-1.3.3h-.8V82h.7c.5 0 1.1.1 1.6.2.4.1.8.4 1.1.8.3.4.4.8.4 1.3 0 .6-.3 1.2-.7 1.6-.6.5-1.3.7-2 .6-.5 0-1-.1-1.4-.3-.4-.2-.8-.6-1-1s-.4-.9-.4-1.5h-2c0 .9.2 1.7.7 2.5.4.7 1 1.2 1.8 1.5.8.4 1.6.5 2.4.5.9 0 1.7-.1 2.6-.5m-19.7.3v-1.7h-6.4c1.3-.9 2.5-1.8 3.7-2.9.8-.7 1.5-1.6 2-2.5.4-.8.6-1.6.6-2.4 0-.7-.2-1.4-.5-2-.4-.6-.9-1.1-1.5-1.4-.7-.3-1.6-.5-2.4-.5-.8 0-1.7.2-2.4.5-.7.4-1.3.9-1.7 1.5-.4.7-.7 1.6-.7 2.4h2c0-.8.3-1.5.8-2.1.5-.5 1.3-.8 2-.7.6 0 1.3.2 1.8.6.4.4.7 1 .6 1.7 0 .7-.3 1.4-.7 2-.7 1-1.4 1.8-2.3 2.6-1.1 1-2.5 2.1-4.2 3.4V88h9.3zm-28.8-2.8c-.6-1.2-.8-2.5-.8-3.8-.1-1.3.2-2.6.8-3.8.7-1.2 2.2-1.7 3.5-1 .4.2.8.6 1 1 .6 1.2.8 2.5.8 3.8.1 1.3-.2 2.6-.8 3.8-.6 1.2-2.2 1.7-3.4 1.1-.5-.3-.9-.7-1.1-1.1m5 2.2c.8-.6 1.4-1.5 1.7-2.4.8-2.4.8-4.9 0-7.3-.3-.9-.9-1.7-1.7-2.3-1.7-1.1-3.8-1.1-5.5 0-.8.6-1.4 1.4-1.7 2.4-.8 2.3-.8 4.9 0 7.2.3.9.9 1.8 1.7 2.4 1.7 1.1 3.8 1.1 5.5 0m-19.9.6v-1.7h-6.4c1.3-.9 2.5-1.8 3.7-2.9.8-.7 1.5-1.6 2-2.5.4-.8.6-1.6.6-2.4 0-.7-.2-1.4-.5-2-.4-.6-.9-1.1-1.5-1.4-.7-.3-1.5-.5-2.4-.5-.8 0-1.7.2-2.4.5s-1.3.9-1.7 1.5c-.4.7-.7 1.6-.7 2.4h2c0-.8.3-1.5.9-2.1.5-.5 1.3-.8 2-.7.6 0 1.3.2 1.8.6.4.4.7 1 .6 1.7 0 .7-.3 1.4-.7 2-.7 1-1.4 1.8-2.3 2.6-1.1 1-2.5 2.1-4.2 3.4V88h9.2z" fill="#fff"/></svg>