<svg xmlns="http://www.w3.org/2000/svg" viewBox="0 0 197.77 137.97"><g data-name="Layer 2"><path d="M171.34 35.2h26.43v-4.54h-26.43zm7-30.66h16V0h-16zM189 0h-5.35v35.2H189zM94.08 35.2v-16h14v-4.52h-14V4.54h27.15V0h-32.5v35.2zM0 35.2h5.4L12.61 12l2.12-7.76 2.11 7.71L24 35.2h5.49L18.56 0h-7.67zm32.4-13.41H5.25v4.54H32.4zm138.94 52.47h26.44v4.54h-26.44zm7.53 28.1h18.9v4.54h-18.9zm-13.57 28.11h32.47v4.54H165.3zm-64.3 7.2a5.05 5.05 0 001.44-.82 3.23 3.23 0 00.91-1.14l-.23-.23v2.24h1.57V130a3.58 3.58 0 00-.53-2 3.71 3.71 0 00-1.49-1.33 4.77 4.77 0 00-2.19-.48 5.19 5.19 0 00-1.82.34 5.54 5.54 0 00-1.56.94 3.56 3.56 0 00-1 1.3l1.42.77a3.16 3.16 0 012.95-1.84 2.82 2.82 0 011.91.63 2 2 0 01.73 1.63v2.85a3.66 3.66 0 01-.48 1.86 3.49 3.49 0 01-1.34 1.33 3.94 3.94 0 01-2 .5 2.25 2.25 0 01-1.54-.53 1.63 1.63 0 01-.6-1.28 1.89 1.89 0 01.54-1.34 3.1 3.1 0 011.75-.77l4-.67v-1.43l-4.4.74a5.56 5.56 0 00-2 .71 3.29 3.29 0 00-1.18 1.23 3.4 3.4 0 00-.37 1.6 2.84 2.84 0 00.48 1.63 3.23 3.23 0 001.32 1.12 4.18 4.18 0 001.9.41 5.35 5.35 0 001.82-.3m-9.32-11.18h-1.57v11.23h1.57zm-7.37 11.07a3.34 3.34 0 001.41-1.14 2.93 2.93 0 00-.25-3.62 4.55 4.55 0 00-2.13-1.24l-1.86-.51a5.08 5.08 0 01-.68-.26 1.74 1.74 0 01-.68-.5 1.29 1.29 0 01-.3-.9 1.51 1.51 0 01.57-1.21 2.26 2.26 0 011.51-.49 3 3 0 011.75.54 3.4 3.4 0 011.2 1.48l1.34-.63a4.06 4.06 0 00-1.64-2.03 4.77 4.77 0 00-2.59-.74 4.45 4.45 0 00-1.91.4 3.28 3.28 0 00-1.36 1.13 3 3 0 00-.5 1.72 2.74 2.74 0 00.69 1.84 4.61 4.61 0 002.24 1.24l1.62.46a4.22 4.22 0 01.77.27 2.57 2.57 0 01.78.53 1.31 1.31 0 01.33.94 1.49 1.49 0 01-.69 1.28 2.85 2.85 0 01-1.7.5 3.29 3.29 0 01-1.91-.61A4.14 4.14 0 0179 134.3l-1.31.63a4.54 4.54 0 001.75 2.22 5.37 5.37 0 004.91.41m-12.69 0a5.28 5.28 0 001.65-1 4.19 4.19 0 001-1.4l-1.31-.71a4.66 4.66 0 01-1.36 1.47 3.54 3.54 0 01-2.07.59 3.91 3.91 0 01-2-.55 3.83 3.83 0 01-1.47-1.54 4.11 4.11 0 01-.43-2.33 4.21 4.21 0 01.4-2.32 3.72 3.72 0 011.39-1.52 3.66 3.66 0 011.94-.54 3.36 3.36 0 011.88.53 3.55 3.55 0 011.29 1.45 3.29 3.29 0 01.26 2.06l.76-.63H65v1.47h9.49a5 5 0 00.06-.54 3.94 3.94 0 000-.47 5.54 5.54 0 00-1.38-3.68 5.14 5.14 0 00-1.62-1.21 5 5 0 00-2.17-.45 5.2 5.2 0 00-2.76.75 5.42 5.42 0 00-1.93 2.07 6.11 6.11 0 00-.72 3 6.22 6.22 0 00.74 3 5.49 5.49 0 002 2.11 5.37 5.37 0 002.84.76 5.49 5.49 0 002.1-.39m-18.85.14V131a3.71 3.71 0 01.37-1.73 2.68 2.68 0 011.05-1.11 3 3 0 011.53-.39 2.94 2.94 0 011.52.39 2.67 2.67 0 011 1.1 3.8 3.8 0 01.36 1.74v6.68h1.57v-7.29a4.09 4.09 0 00-2.06-3.65 4.29 4.29 0 00-2.15-.54 3.92 3.92 0 00-2.21.63 3.54 3.54 0 00-1.37 1.72l.36.08v-2.18H51.2v11.23zm-13.2-1.88a4.22 4.22 0 01-1.46-1.56 4.44 4.44 0 01-.54-2.19 4.35 4.35 0 01.54-2.18 4.13 4.13 0 011.46-1.53 4 4 0 014.09 0 4.08 4.08 0 011.44 1.53 4.35 4.35 0 01.53 2.18 4.44 4.44 0 01-.53 2.19 4.17 4.17 0 01-1.44 1.56 4 4 0 01-4.09 0m4.9 1.38a5.76 5.76 0 002.07-2.09 6 6 0 00.77-3 6.09 6.09 0 00-.74-3 5.58 5.58 0 00-2-2.08 5.67 5.67 0 00-2.92-.75 5.54 5.54 0 00-5 2.85 6.3 6.3 0 000 6 5.69 5.69 0 002.06 2.1 5.85 5.85 0 005.75 0m-20.09-1.38a4 4 0 01-1.4-1.55 5 5 0 010-4.38 3.86 3.86 0 011.41-1.53 3.71 3.71 0 012-.57 3.78 3.78 0 012 .57 4 4 0 011.44 1.54 4.44 4.44 0 01.54 2.19 4.38 4.38 0 01-.54 2.18 4.06 4.06 0 01-1.44 1.55 3.86 3.86 0 01-2 .56 3.78 3.78 0 01-2-.56m4.55 1.47a4.22 4.22 0 001.75-1.87l-.25-.23v2.51H32v-15.85h-1.56V129l.25-.44a4.69 4.69 0 00-1.78-1.7 5.22 5.22 0 00-2.58-.63 5.32 5.32 0 00-2.84.76 5.58 5.58 0 00-2 2.09 6.65 6.65 0 000 6 5.56 5.56 0 002 2.1 5.33 5.33 0 002.83.76 5.19 5.19 0 002.61-.66m-19.32.41V131a3.71 3.71 0 01.38-1.73 2.68 2.68 0 011.05-1.11 3.18 3.18 0 013 0 2.59 2.59 0 011 1.1 3.67 3.67 0 01.37 1.74v6.68h1.57v-7.29a4.2 4.2 0 00-.56-2.15 4.15 4.15 0 00-1.5-1.5 4.32 4.32 0 00-2.15-.54 3.9 3.9 0 00-2.21.63 3.48 3.48 0 00-1.37 1.72l.35.08v-2.18H8.05v11.23zm-6.32-15.58H1.61v15.61h1.68zm24.58-12.32v-6.69a3.55 3.55 0 01.38-1.72 2.66 2.66 0 011-1.11 2.75 2.75 0 011.46-.39 2.66 2.66 0 012.44 1.49 3.78 3.78 0 01.37 1.73v6.69h1.58v-6.69a3.67 3.67 0 01.37-1.72 2.64 2.64 0 011-1.11 2.74 2.74 0 011.53-.39 2.66 2.66 0 012.44 1.49 3.78 3.78 0 01.36 1.73v6.69h1.57v-7.29a4.11 4.11 0 00-.57-2.15 4.31 4.31 0 00-1.53-1.5 4.17 4.17 0 00-2.09-.54 4 4 0 00-2.29.68 3.59 3.59 0 00-1.46 2h.44A4.06 4.06 0 0031 98.31a3.85 3.85 0 00-2 .54 3.39 3.39 0 00-1.37 1.53l.25.32v-2.14H26.3v11.23zm-6-15.86H20.3v15.86h1.57zm-6 4.63h-1.52v11.23h1.57zM3.29 109.79v-7h7.33v-1.57H3.29v-5.47h8v-1.57H1.61v15.61zm94.15-39.16h-1.57v11.23h1.57zM90.07 81.7a3.34 3.34 0 001.41-1.14A2.77 2.77 0 0092 78.9a2.84 2.84 0 00-.77-2 4.47 4.47 0 00-2.12-1.23l-1.87-.55a5.4 5.4 0 01-.68-.25 1.94 1.94 0 01-.68-.5 1.37 1.37 0 01-.29-.9 1.55 1.55 0 01.56-1.22 2.26 2.26 0 011.51-.48 3.08 3.08 0 011.75.53 3.39 3.39 0 011.2 1.48l1.39-.6a4 4 0 00-1.65-2.06 4.66 4.66 0 00-2.59-.74 4.55 4.55 0 00-1.9.39 3.37 3.37 0 00-1.36 1.13 3 3 0 00-.5 1.72 2.7 2.7 0 00.7 1.85 4.48 4.48 0 002.24 1.23l1.61.46a5.32 5.32 0 01.77.28 2.21 2.21 0 01.78.53 1.29 1.29 0 01.34.93 1.53 1.53 0 01-.7 1.29 2.81 2.81 0 01-1.69.49 3.25 3.25 0 01-1.92-.61 4 4 0 01-1.35-1.63l-1.32.63a4.56 4.56 0 001.76 2.22 5.35 5.35 0 004.9.41m-13.93.1a4.81 4.81 0 001.39-.8 3.24 3.24 0 00.91-1.15l-.23-.23v2.25h1.58v-7.72a3.56 3.56 0 00-2-3.29 4.77 4.77 0 00-2.19-.48 5 5 0 00-1.82.34 5.57 5.57 0 00-1.56.93 3.76 3.76 0 00-1 1.3l1.42.78a3.19 3.19 0 013-1.85 2.82 2.82 0 011.91.63 2.06 2.06 0 01.73 1.64V77a3.68 3.68 0 01-.48 1.86 3.56 3.56 0 01-1.34 1.33 3.94 3.94 0 01-2 .49 2.24 2.24 0 01-1.54-.52 1.64 1.64 0 01-.6-1.28 1.87 1.87 0 01.54-1.34 3 3 0 011.75-.78l4-.67v-1.42l-4.4.73a5.44 5.44 0 00-2 .72A3.27 3.27 0 0071 77.34a3.43 3.43 0 00-.37 1.6 2.87 2.87 0 00.48 1.64 3.3 3.3 0 001.32 1.12 4.32 4.32 0 001.91.41 5.06 5.06 0 001.81-.31m-9.33-11.17h-1.57v11.23h1.57zM59.45 81.7a3.34 3.34 0 001.41-1.14 2.91 2.91 0 00-.25-3.63 4.46 4.46 0 00-2.13-1.23l-1.86-.55a4.89 4.89 0 01-.68-.25 1.85 1.85 0 01-.68-.5 1.32 1.32 0 01-.3-.9 1.53 1.53 0 01.57-1.22A2.26 2.26 0 0157 71.8a3.11 3.11 0 011.75.53A3.46 3.46 0 0160 73.81l1.34-.63a4 4 0 00-1.64-2.06 4.68 4.68 0 00-2.59-.74 4.51 4.51 0 00-1.9.39 3.4 3.4 0 00-1.37 1.13 3 3 0 00-.5 1.72 2.74 2.74 0 00.66 1.85 4.53 4.53 0 002.24 1.23l1.62.46a5.32 5.32 0 01.77.28 2.3 2.3 0 01.78.53 1.29 1.29 0 01.33.93 1.52 1.52 0 01-.69 1.29 2.85 2.85 0 01-1.7.49 3.24 3.24 0 01-1.91-.61 4 4 0 01-1.35-1.63l-1.32.63a4.6 4.6 0 001.75 2.22 5.37 5.37 0 004.91.41m-12.69 0a5.31 5.31 0 001.65-1 4.15 4.15 0 001-1.39l-1.34-.71a4.74 4.74 0 01-1.36 1.46 3.46 3.46 0 01-2.07.59 3.9 3.9 0 01-3.47-2.08 4.16 4.16 0 01-.43-2.34 4.17 4.17 0 01.4-2.31 3.72 3.72 0 011.39-1.52 3.61 3.61 0 011.94-.55 3.42 3.42 0 011.89.54 3.51 3.51 0 011.28 1.44 3.38 3.38 0 01.27 2.06l.75-.62h-8.55v1.46h9.49a5.06 5.06 0 00.06-.53 4.23 4.23 0 000-.47A5.61 5.61 0 0048.28 72a4.89 4.89 0 00-1.62-1.21 5 5 0 00-2.17-.45 5.14 5.14 0 00-2.75.75 5.34 5.34 0 00-1.94 2.06 6.17 6.17 0 00-.71 3 6.24 6.24 0 00.73 3 5.46 5.46 0 002 2.1 5.38 5.38 0 002.84.77 5.46 5.46 0 002.1-.39m-13.64.14v-6.83a2.91 2.91 0 01.73-2.13 2.58 2.58 0 011.95-.76h1v-1.57h-.71a3.87 3.87 0 00-2 .46 3 3 0 00-1.19 1.26l.22.27v-1.84h-1.58v11.23zM20 80a4.11 4.11 0 01-1.44-1.54 4.71 4.71 0 010-4.38A4.11 4.11 0 0120 72.51a3.87 3.87 0 012-.51 3.77 3.77 0 012 .56A4.05 4.05 0 0125.46 74a5 5 0 010 4.39 4 4 0 01-1.4 1.61 3.69 3.69 0 01-2 .57A3.79 3.79 0 0120 80m-2 6.08v-6.74l-.25.23a4.25 4.25 0 001.75 1.88 5.19 5.19 0 002.61.66 5.33 5.33 0 002.89-.77 5.58 5.58 0 002-2.09 6.67 6.67 0 000-6 5.55 5.55 0 00-2-2.08 5.32 5.32 0 00-2.84-.76 5.15 5.15 0 00-2.57.62 5 5 0 00-1.79 1.7l.25.44v-2.54h-1.61v15.42zM6.85 67.51h-.5l3.16 9H3.67zM1.76 81.86L3.12 78h7l1.34 3.82h1.74L7.5 66.25H5.7L0 81.86z" data-name="Layer 1" fill="#fff"/></g></svg>