<?xml version="1.0" encoding="utf-8"?>
<!-- Generator: Adobe Illustrator 22.1.0, SVG Export Plug-In . SVG Version: 6.00 Build 0)  -->
<svg version="1.1" id="Layer_1" xmlns="http://www.w3.org/2000/svg" xmlns:xlink="http://www.w3.org/1999/xlink" x="0px" y="0px"
	 viewBox="0 0 170 60" style="enable-background:new 0 0 170 60;" xml:space="preserve">
<g>
	<g>
		<path d="M86.7,58.8c0.4-0.2,0.8-0.4,1.2-0.7c0.3-0.3,0.6-0.6,0.7-0.9L88.4,57v1.8h1.3v-6.2c0-0.6-0.1-1.1-0.4-1.6
			c-0.3-0.5-0.7-0.8-1.2-1.1c-0.5-0.3-1.1-0.4-1.8-0.4c-0.5,0-1,0.1-1.5,0.3c-0.5,0.2-0.9,0.4-1.3,0.8c-0.4,0.3-0.6,0.7-0.8,1.1
			l1.2,0.6c0.2-0.4,0.5-0.8,0.9-1.1s0.9-0.4,1.5-0.4c0.6,0,1.1,0.2,1.5,0.5c0.4,0.3,0.6,0.8,0.6,1.3v2.3c0,0.6-0.1,1.1-0.4,1.5
			c-0.3,0.5-0.6,0.8-1.1,1.1c-0.5,0.3-1,0.4-1.6,0.4c-0.5,0-0.9-0.1-1.2-0.4c-0.3-0.3-0.5-0.6-0.5-1c0-0.4,0.1-0.8,0.4-1.1
			c0.3-0.3,0.8-0.5,1.4-0.6l3.3-0.5V53l-3.6,0.6c-0.7,0.1-1.2,0.3-1.6,0.6c-0.4,0.3-0.7,0.6-0.9,1c-0.2,0.4-0.3,0.8-0.3,1.3
			c0,0.5,0.1,0.9,0.4,1.3c0.3,0.4,0.6,0.7,1.1,0.9c0.5,0.2,1,0.3,1.5,0.3C85.8,59,86.3,58.9,86.7,58.8 M79.2,49.7h-1.3v9.1h1.3V49.7
			z M73.2,58.7c0.5-0.2,0.9-0.5,1.1-0.9c0.3-0.4,0.4-0.8,0.4-1.3c0-0.6-0.2-1.1-0.6-1.6c-0.4-0.5-1-0.8-1.7-1l-1.5-0.4
			c-0.2,0-0.3-0.1-0.6-0.2c-0.2-0.1-0.4-0.2-0.6-0.4c-0.2-0.2-0.2-0.4-0.2-0.7c0-0.4,0.2-0.7,0.5-1c0.3-0.3,0.7-0.4,1.2-0.4
			c0.5,0,1,0.1,1.4,0.4c0.4,0.3,0.7,0.7,1,1.2l1.1-0.5c-0.3-0.7-0.7-1.3-1.3-1.7s-1.3-0.6-2.1-0.6c-0.6,0-1.1,0.1-1.5,0.3
			c-0.5,0.2-0.8,0.5-1.1,0.9c-0.3,0.4-0.4,0.9-0.4,1.4c0,0.6,0.2,1.1,0.6,1.5c0.4,0.4,1,0.8,1.8,1l1.3,0.4c0.2,0,0.4,0.1,0.6,0.2
			c0.2,0.1,0.4,0.2,0.6,0.4c0.2,0.2,0.3,0.4,0.3,0.8c0,0.4-0.2,0.8-0.6,1c-0.4,0.3-0.8,0.4-1.4,0.4c-0.6,0-1.1-0.2-1.6-0.5
			s-0.8-0.8-1.1-1.3l-1.1,0.5c0.3,0.8,0.8,1.4,1.4,1.8c0.7,0.4,1.4,0.7,2.3,0.7C72.2,59,72.7,58.9,73.2,58.7 M62.9,58.7
			c0.5-0.2,1-0.5,1.3-0.8c0.4-0.3,0.7-0.7,0.8-1.1L64,56.2c-0.3,0.5-0.7,0.9-1.1,1.2c-0.5,0.3-1,0.5-1.7,0.5c-0.6,0-1.1-0.1-1.6-0.4
			c-0.5-0.3-0.9-0.7-1.2-1.2c-0.3-0.5-0.4-1.2-0.3-1.9c-0.1-0.7,0.1-1.3,0.3-1.9c0.3-0.5,0.6-0.9,1.1-1.2c0.5-0.3,1-0.4,1.6-0.4
			c0.6,0,1.1,0.1,1.5,0.4c0.5,0.3,0.8,0.7,1,1.2c0.2,0.5,0.3,1,0.2,1.7l0.6-0.5h-6.9v1.2h7.7c0-0.1,0-0.3,0.1-0.4c0-0.1,0-0.3,0-0.4
			c0-0.5-0.1-1.1-0.3-1.6c-0.2-0.5-0.5-1-0.8-1.4c-0.4-0.4-0.8-0.7-1.3-1c-0.5-0.2-1.1-0.4-1.8-0.4c-0.8,0-1.6,0.2-2.2,0.6
			s-1.2,1-1.6,1.7c-0.4,0.7-0.6,1.5-0.6,2.4c0,0.9,0.2,1.7,0.6,2.5c0.4,0.7,0.9,1.3,1.6,1.7c0.7,0.4,1.4,0.6,2.3,0.6
			C61.9,59,62.4,58.9,62.9,58.7 M47.7,58.8v-5.4c0-0.5,0.1-1,0.3-1.4c0.2-0.4,0.5-0.7,0.8-0.9c0.4-0.2,0.8-0.3,1.2-0.3
			c0.5,0,0.9,0.1,1.2,0.3s0.6,0.5,0.8,0.9c0.2,0.4,0.3,0.9,0.3,1.4v5.4h1.3v-5.9c0-0.6-0.2-1.2-0.4-1.7C53,50.7,52.6,50.3,52,50
			c-0.5-0.3-1.1-0.4-1.7-0.4c-0.7,0-1.3,0.2-1.8,0.5c-0.5,0.3-0.9,0.8-1.1,1.4l0.3,0.1v-1.8h-1.3v9.1H47.7z M37,57.3
			c-0.5-0.3-0.9-0.7-1.2-1.3c-0.3-0.5-0.4-1.1-0.4-1.8c0-0.7,0.1-1.2,0.4-1.8c0.3-0.5,0.7-0.9,1.2-1.2c0.5-0.3,1-0.5,1.7-0.5
			s1.2,0.2,1.7,0.5c0.5,0.3,0.9,0.7,1.2,1.2c0.3,0.5,0.4,1.1,0.4,1.8c0,0.7-0.1,1.2-0.4,1.8c-0.3,0.5-0.7,0.9-1.2,1.3
			c-0.5,0.3-1,0.5-1.7,0.5S37.5,57.6,37,57.3 M41,58.4c0.7-0.4,1.3-1,1.7-1.7c0.4-0.7,0.6-1.5,0.6-2.5c0-0.9-0.2-1.7-0.6-2.4
			c-0.4-0.7-1-1.3-1.6-1.7c-0.7-0.4-1.5-0.6-2.4-0.6c-0.9,0-1.7,0.2-2.4,0.6c-0.7,0.4-1.2,1-1.7,1.7c-0.4,0.7-0.6,1.5-0.6,2.4
			c0,0.9,0.2,1.7,0.6,2.4c0.4,0.7,1,1.3,1.7,1.7c0.7,0.4,1.5,0.6,2.3,0.6C39.5,59,40.3,58.8,41,58.4 M24.7,57.3
			c-0.5-0.3-0.9-0.7-1.1-1.2c-0.3-0.5-0.4-1.1-0.4-1.8c0-0.7,0.1-1.3,0.4-1.8c0.3-0.5,0.7-0.9,1.1-1.2c0.5-0.3,1-0.5,1.6-0.5
			c0.6,0,1.2,0.2,1.7,0.5c0.5,0.3,0.9,0.7,1.2,1.2c0.3,0.5,0.4,1.1,0.4,1.8c0,0.7-0.1,1.2-0.4,1.8c-0.3,0.5-0.7,0.9-1.2,1.2
			c-0.5,0.3-1,0.5-1.7,0.5C25.8,57.7,25.2,57.6,24.7,57.3 M28.4,58.5c0.6-0.4,1.1-0.9,1.4-1.5l-0.2-0.2v2h1.3V46h-1.3v5.8l0.2-0.4
			c-0.4-0.6-0.8-1-1.4-1.4c-0.6-0.3-1.3-0.5-2.1-0.5c-0.9,0-1.6,0.2-2.3,0.6c-0.7,0.4-1.2,1-1.6,1.7c-0.4,0.7-0.6,1.5-0.6,2.4
			c0,0.9,0.2,1.7,0.6,2.4c0.4,0.7,0.9,1.3,1.6,1.7c0.7,0.4,1.4,0.6,2.3,0.6C27.1,59,27.8,58.8,28.4,58.5 M12.8,58.8v-5.4
			c0-0.5,0.1-1,0.3-1.4c0.2-0.4,0.5-0.7,0.8-0.9c0.4-0.2,0.8-0.3,1.2-0.3c0.5,0,0.9,0.1,1.2,0.3s0.6,0.5,0.8,0.9
			c0.2,0.4,0.3,0.9,0.3,1.4v5.4h1.3v-5.9c0-0.6-0.1-1.2-0.4-1.7c-0.3-0.5-0.7-0.9-1.2-1.2c-0.5-0.3-1.1-0.4-1.7-0.4
			c-0.7,0-1.3,0.2-1.8,0.5c-0.5,0.3-0.9,0.8-1.1,1.4l0.3,0.1v-1.8h-1.3v9.1H12.8z M7.7,46.2H6.3v12.6h1.4V46.2z"/>
		<path d="M27.5,36.2v-5.4c0-0.5,0.1-1,0.3-1.4c0.2-0.4,0.5-0.7,0.8-0.9c0.3-0.2,0.7-0.3,1.2-0.3c0.4,0,0.8,0.1,1.2,0.3
			c0.3,0.2,0.6,0.5,0.8,0.9c0.2,0.4,0.3,0.9,0.3,1.4v5.4h1.3v-5.4c0-0.5,0.1-1,0.3-1.4c0.2-0.4,0.5-0.7,0.8-0.9
			c0.3-0.2,0.7-0.3,1.2-0.3c0.4,0,0.8,0.1,1.2,0.3c0.3,0.2,0.6,0.5,0.8,0.9c0.2,0.4,0.3,0.9,0.3,1.4v5.4h1.3v-5.9
			c0-0.6-0.2-1.2-0.5-1.7c-0.3-0.5-0.7-0.9-1.2-1.2c-0.5-0.3-1.1-0.4-1.7-0.4c-0.7,0-1.3,0.2-1.9,0.6c-0.6,0.4-1,0.9-1.2,1.6l0.4,0
			c-0.2-0.6-0.6-1.1-1.2-1.5c-0.6-0.4-1.2-0.6-1.9-0.6c-0.6,0-1.1,0.1-1.6,0.4c-0.5,0.3-0.9,0.7-1.1,1.2l0.2,0.3v-1.7h-1.3v9.1H27.5
			z M22.7,23.4h-1.3v12.8h1.3V23.4z M17.9,27.1h-1.3v9.1h1.3V27.1z M7.7,36.2v-5.7h5.9v-1.3H7.7v-4.4h6.4v-1.3H6.3v12.6H7.7z"/>
		<path d="M83.8,4.5h-1.3v9.1h1.3V4.5z M77.9,13.5c0.5-0.2,0.9-0.5,1.1-0.9c0.3-0.4,0.4-0.8,0.4-1.3c0-0.6-0.2-1.1-0.6-1.6
			c-0.4-0.5-1-0.8-1.7-1l-1.5-0.4c-0.2,0-0.3-0.1-0.6-0.2c-0.2-0.1-0.4-0.2-0.6-0.4c-0.2-0.2-0.2-0.4-0.2-0.7c0-0.4,0.2-0.7,0.5-1
			c0.3-0.3,0.7-0.4,1.2-0.4c0.5,0,1,0.1,1.4,0.4c0.4,0.3,0.7,0.7,1,1.2l1.1-0.5c-0.3-0.7-0.7-1.3-1.3-1.7c-0.6-0.4-1.3-0.6-2.1-0.6
			c-0.6,0-1.1,0.1-1.5,0.3c-0.5,0.2-0.8,0.5-1.1,0.9C73.1,6,72.9,6.4,72.9,7c0,0.6,0.2,1.1,0.6,1.5s1,0.8,1.8,1l1.3,0.4
			c0.2,0,0.4,0.1,0.6,0.2c0.2,0.1,0.4,0.2,0.6,0.4c0.2,0.2,0.3,0.4,0.3,0.8c0,0.4-0.2,0.8-0.6,1c-0.4,0.3-0.8,0.4-1.4,0.4
			c-0.6,0-1.1-0.2-1.6-0.5c-0.5-0.3-0.8-0.8-1.1-1.3l-1.1,0.5c0.3,0.8,0.8,1.4,1.4,1.8c0.7,0.4,1.4,0.7,2.3,0.7
			C76.8,13.8,77.4,13.7,77.9,13.5 M66.6,13.6c0.4-0.2,0.8-0.4,1.2-0.7c0.3-0.3,0.6-0.6,0.7-0.9l-0.2-0.2v1.8h1.3V7.4
			c0-0.6-0.1-1.1-0.4-1.6C68.9,5.3,68.5,5,68,4.7c-0.5-0.3-1.1-0.4-1.8-0.4c-0.5,0-1,0.1-1.5,0.3c-0.5,0.2-0.9,0.4-1.3,0.8
			c-0.4,0.3-0.6,0.7-0.8,1.1L63.8,7C64,6.6,64.3,6.2,64.7,6c0.4-0.3,0.9-0.4,1.5-0.4c0.6,0,1.1,0.2,1.5,0.5c0.4,0.3,0.6,0.8,0.6,1.3
			v2.3c0,0.6-0.1,1.1-0.4,1.5c-0.3,0.5-0.6,0.8-1.1,1.1c-0.5,0.3-1,0.4-1.6,0.4c-0.5,0-0.9-0.1-1.2-0.4c-0.3-0.3-0.5-0.6-0.5-1
			c0-0.4,0.1-0.8,0.4-1.1s0.8-0.5,1.4-0.6L68.6,9V7.8L65,8.4c-0.7,0.1-1.2,0.3-1.6,0.6s-0.7,0.6-0.9,1c-0.2,0.4-0.3,0.8-0.3,1.3
			c0,0.5,0.1,0.9,0.4,1.3c0.3,0.4,0.6,0.7,1.1,0.9c0.5,0.2,1,0.3,1.5,0.3C65.7,13.8,66.1,13.7,66.6,13.6 M59.1,4.5h-1.3v9.1h1.3V4.5
			z M53.1,13.5c0.5-0.2,0.9-0.5,1.1-0.9c0.3-0.4,0.4-0.8,0.4-1.3c0-0.6-0.2-1.1-0.6-1.6c-0.4-0.5-1-0.8-1.7-1l-1.5-0.4
			c-0.2,0-0.3-0.1-0.6-0.2c-0.2-0.1-0.4-0.2-0.6-0.4c-0.2-0.2-0.2-0.4-0.2-0.7c0-0.4,0.2-0.7,0.5-1c0.3-0.3,0.7-0.4,1.2-0.4
			c0.5,0,1,0.1,1.4,0.4c0.4,0.3,0.7,0.7,1,1.2l1.1-0.5c-0.3-0.7-0.7-1.3-1.3-1.7c-0.6-0.4-1.3-0.6-2.1-0.6c-0.6,0-1.1,0.1-1.5,0.3
			c-0.5,0.2-0.8,0.5-1.1,0.9C48.3,6,48.1,6.4,48.1,7c0,0.6,0.2,1.1,0.6,1.5c0.4,0.4,1,0.8,1.8,1l1.3,0.4c0.2,0,0.4,0.1,0.6,0.2
			c0.2,0.1,0.4,0.2,0.6,0.4c0.2,0.2,0.3,0.4,0.3,0.8c0,0.4-0.2,0.8-0.6,1c-0.4,0.3-0.8,0.4-1.4,0.4c-0.6,0-1.1-0.2-1.6-0.5
			c-0.5-0.3-0.8-0.8-1.1-1.3l-1.1,0.5c0.3,0.8,0.8,1.4,1.4,1.8c0.7,0.4,1.4,0.7,2.3,0.7C52,13.8,52.6,13.7,53.1,13.5 M42.8,13.5
			c0.5-0.2,1-0.5,1.3-0.8c0.4-0.3,0.7-0.7,0.8-1.1L43.9,11c-0.3,0.5-0.7,0.9-1.1,1.2c-0.5,0.3-1,0.5-1.7,0.5c-0.6,0-1.1-0.1-1.6-0.4
			c-0.5-0.3-0.9-0.7-1.2-1.2C38,10.4,37.9,9.8,38,9.1c-0.1-0.7,0.1-1.3,0.3-1.9c0.3-0.5,0.6-0.9,1.1-1.2c0.5-0.3,1-0.4,1.6-0.4
			s1.1,0.1,1.5,0.4c0.5,0.3,0.8,0.7,1,1.2c0.2,0.5,0.3,1,0.2,1.7l0.6-0.5h-6.9v1.2h7.7c0-0.1,0-0.3,0.1-0.4c0-0.1,0-0.3,0-0.4
			c0-0.5-0.1-1.1-0.3-1.6c-0.2-0.5-0.5-1-0.8-1.4c-0.4-0.4-0.8-0.7-1.3-1c-0.5-0.2-1.1-0.4-1.8-0.4c-0.8,0-1.6,0.2-2.2,0.6
			c-0.7,0.4-1.2,1-1.6,1.7c-0.4,0.7-0.6,1.5-0.6,2.4c0,0.9,0.2,1.7,0.6,2.5c0.4,0.7,0.9,1.3,1.6,1.7c0.7,0.4,1.4,0.6,2.3,0.6
			C41.7,13.8,42.3,13.7,42.8,13.5 M31.8,13.6V8c0-0.7,0.2-1.3,0.6-1.7c0.4-0.4,0.9-0.6,1.6-0.6h0.8V4.4h-0.6c-0.6,0-1.1,0.1-1.6,0.4
			c-0.4,0.2-0.8,0.6-1,1L31.8,6V4.5h-1.3v9.1H31.8z M21.2,12.1c-0.5-0.3-0.9-0.7-1.2-1.2c-0.3-0.5-0.4-1.1-0.4-1.8
			c0-0.7,0.1-1.2,0.4-1.8c0.3-0.5,0.7-0.9,1.2-1.2c0.5-0.3,1-0.5,1.7-0.5c0.6,0,1.2,0.2,1.6,0.5c0.5,0.3,0.9,0.7,1.1,1.2
			C25.9,7.8,26,8.4,26,9.1c0,0.7-0.1,1.2-0.4,1.8c-0.3,0.5-0.7,0.9-1.1,1.2c-0.5,0.3-1,0.5-1.6,0.5C22.2,12.5,21.7,12.4,21.2,12.1
			 M19.6,17v-5.4l-0.2,0.2c0.3,0.7,0.8,1.2,1.4,1.5c0.6,0.4,1.3,0.5,2.1,0.5c0.9,0,1.6-0.2,2.3-0.6c0.7-0.4,1.2-1,1.6-1.7
			c0.4-0.7,0.6-1.5,0.6-2.4c0-0.9-0.2-1.7-0.6-2.4c-0.4-0.7-0.9-1.3-1.6-1.7c-0.7-0.4-1.4-0.6-2.3-0.6c-0.8,0-1.5,0.2-2.1,0.5
			c-0.6,0.3-1.1,0.8-1.4,1.4l0.2,0.4v-2h-1.3V17H19.6z M10.5,2h-0.4l2.6,7.3H8L10.5,2z M6.4,13.6l1.1-3.1h5.6l1.1,3.1h1.4L11.1,1
			H9.6L5,13.6H6.4z"/>
	</g>
	<rect x="143.6" y="7.5" width="21.4" height="3.7"/>
	<rect x="149.7" y="30.2" width="15.3" height="3.7"/>
	<rect x="138.7" y="52.9" width="26.3" height="3.7"/>
</g>
</svg>
