<svg data-name="Layer 1" xmlns="http://www.w3.org/2000/svg" viewBox="0 0 96.1 34.85"><path d="M83.25 3.89H96.1V6.1H83.25zm3.66 13.66h9.19v2.21h-9.19zM80.32 31.2H96.1v2.21H80.32zm-31.24 3.5a2.26 2.26 0 00.7-.39 1.54 1.54 0 00.44-.56l-.11-.11v1.09h.77v-3.75a1.78 1.78 0 00-.26-1 1.82 1.82 0 00-.73-.64 2.24 2.24 0 00-1.06-.24 2.38 2.38 0 00-.88.17 2.51 2.51 0 00-.76.45 1.8 1.8 0 00-.49.63l.7.38a1.52 1.52 0 01.56-.65 1.58 1.58 0 01.87-.25 1.41 1.41 0 01.93.31 1 1 0 01.35.79v1.39a1.72 1.72 0 01-.23.9 1.69 1.69 0 01-.65.65 2 2 0 01-1 .24 1.07 1.07 0 01-.75-.26.78.78 0 01-.29-.62.94.94 0 01.26-.65 1.46 1.46 0 01.85-.37l2-.33v-.69l-2.14.35a2.8 2.8 0 00-1 .35 1.49 1.49 0 00-.57.6 1.65 1.65 0 00-.18.77 1.44 1.44 0 00.19.83 1.61 1.61 0 00.64.54 2 2 0 00.93.2 2.5 2.5 0 00.88-.15m-4.45-5.41h-.76v5.46h.76zm-3.58 5.38a1.64 1.64 0 00.69-.55 1.44 1.44 0 00.25-.81 1.4 1.4 0 00-.37-1 2.26 2.26 0 00-1-.6l-.9-.27-.33-.12a.88.88 0 01-.34-.24.68.68 0 01-.14-.44.72.72 0 01.28-.59 1.05 1.05 0 01.73-.24 1.5 1.5 0 01.85.26 1.72 1.72 0 01.58.72l.66-.3a2 2 0 00-.8-1 2.31 2.31 0 00-1.26-.36 2.34 2.34 0 00-.93.19 1.7 1.7 0 00-.66.55 1.48 1.48 0 00-.24.84 1.31 1.31 0 00.33.89 2.21 2.21 0 001.09.6l.79.23a2.78 2.78 0 01.37.13 1.12 1.12 0 01.38.26.61.61 0 01.16.45.74.74 0 01-.33.63 1.4 1.4 0 01-.83.24 1.56 1.56 0 01-.93-.3 1.88 1.88 0 01-.65-.79l-.65.31a2.27 2.27 0 00.78 1.11 2.35 2.35 0 001.37.4 2.31 2.31 0 001-.2m-6.16 0a2.52 2.52 0 00.8-.5 2.1 2.1 0 00.5-.67l-.66-.35a2.24 2.24 0 01-.66.71 1.72 1.72 0 01-1 .29 2 2 0 01-1-.26 1.9 1.9 0 01-.69-.78 2.1 2.1 0 01-.21-1.14 2.11 2.11 0 01.19-1.12 1.81 1.81 0 01.68-.74 1.74 1.74 0 01.94-.27 1.7 1.7 0 01.9.27 1.8 1.8 0 01.63.71 1.66 1.66 0 01.12 1l.37-.31H31.6v.72h4.62v-.49a2.79 2.79 0 00-.68-1.79 2.35 2.35 0 00-1.84-.81 2.48 2.48 0 00-1.34.37 2.66 2.66 0 00-.94 1 3.3 3.3 0 000 2.94 2.72 2.72 0 001 1 2.81 2.81 0 002.41.18m-9.23.12v-3.25a1.86 1.86 0 01.19-.84 1.33 1.33 0 01.51-.54 1.48 1.48 0 01.74-.19 1.51 1.51 0 01.74.19 1.37 1.37 0 01.5.54 1.8 1.8 0 01.18.84v3.25h.76v-3.54a2.05 2.05 0 00-.27-1.05 2 2 0 00-.73-.72 2.05 2.05 0 00-1.05-.27 1.84 1.84 0 00-1.07.31 1.72 1.72 0 00-.67.83h.17v-1.02h-.76v5.46zm-6.41-.92a2 2 0 01-.7-.75 2.15 2.15 0 01-.27-1.07 2.09 2.09 0 01.27-1.06 2 2 0 01.7-.74 1.91 1.91 0 012 0 2 2 0 01.7.74 2.19 2.19 0 01.26 1.06 2.26 2.26 0 01-.23 1.1 2 2 0 01-.7.75 1.91 1.91 0 01-2 0m2.38.65a2.82 2.82 0 001-1 3.14 3.14 0 000-2.94 2.64 2.64 0 00-1-1 2.74 2.74 0 00-1.42-.37 2.71 2.71 0 00-2.42 1.39 3.1 3.1 0 000 2.92 2.8 2.8 0 001 1 2.85 2.85 0 002.79 0m-9.76-.68a2 2 0 01-.68-.75 2.27 2.27 0 01-.25-1.06 2.31 2.31 0 01.25-1.07 2 2 0 01.69-.74 1.84 1.84 0 011-.28 1.9 1.9 0 011 .28 2 2 0 01.7.75 2.19 2.19 0 01.26 1.06 2.16 2.16 0 01-.23 1.09 2 2 0 01-.7.75 1.81 1.81 0 01-1 .28 1.76 1.76 0 01-1-.28m2.21.72a2 2 0 00.85-.91l-.12-.11v1.22h.83v-7.74h-.76v3.48l.12-.22a2.34 2.34 0 00-.86-.82 2.49 2.49 0 00-1.25-.31 2.59 2.59 0 00-2.34 1.39 3 3 0 00-.35 1.46 3.06 3.06 0 00.35 1.46 2.59 2.59 0 002.34 1.39 2.54 2.54 0 001.26-.32m-9.38.2v-3.25a1.86 1.86 0 01.18-.84 1.33 1.33 0 01.46-.55 1.51 1.51 0 01.74-.19 1.48 1.48 0 01.74.19 1.37 1.37 0 01.5.54 1.8 1.8 0 01.18.84v3.25h.76v-3.53a2.05 2.05 0 00-.27-1.05 1.94 1.94 0 00-.73-.72 2.05 2.05 0 00-1-.27 1.87 1.87 0 00-1.07.31 1.72 1.72 0 00-.67.83h.18v-1.02h-.82v5.46zM1.6 27.15H.79v7.58h.81zm11.94-7.67v-2.54a1.09 1.09 0 01.19-.66 1.19 1.19 0 01.49-.42 1.61 1.61 0 01.71-.15 1.57 1.57 0 01.7.15 1.22 1.22 0 01.48.42 1.16 1.16 0 01.18.66v2.54h.76v-2.54a1.17 1.17 0 01.19-.66 1.21 1.21 0 01.5-.42 1.6 1.6 0 01.7-.15 1.57 1.57 0 01.7.15 1.14 1.14 0 01.66 1.08v2.54h.8v-2.77a1.33 1.33 0 00-.28-.82 2 2 0 00-.75-.57 2.62 2.62 0 00-2.12.05 1.46 1.46 0 00-.71.76h.21a1.63 1.63 0 00-.72-.73 2.4 2.4 0 00-1.17-.31 2.22 2.22 0 00-1 .2 1.48 1.48 0 00-.67.58l.12.12v-.81h-.76v4.27zm-2.91-6h-.77v6h.74zm-2.89 1.76h-.76v4.27h.76zM1.6 19.48V16.8h3.56v-.59H1.6v-2.07h3.87v-.59H.79v5.93zM47.35 2.09h-.75v5.45h.77zm-3.58 5.38a1.57 1.57 0 00.68-.56 1.31 1.31 0 00.25-.8 1.36 1.36 0 00-.37-1 2.22 2.22 0 00-1-.6l-.91-.26-.33-.12a1.11 1.11 0 01-.33-.25.66.66 0 01-.16-.36.76.76 0 01.27-.59 1.15 1.15 0 01.73-.23 1.52 1.52 0 01.85.26 1.67 1.67 0 01.58.72l.65-.31a1.89 1.89 0 00-.8-1 2.25 2.25 0 00-1.28-.36 2.18 2.18 0 00-.93.19 1.55 1.55 0 00-.66.55 1.48 1.48 0 00-.25.83 1.36 1.36 0 00.34.9 2.17 2.17 0 001.09.6l.78.22a3.06 3.06 0 01.38.14 1.22 1.22 0 01.38.26.61.61 0 01.16.45.73.73 0 01-.34.63 1.37 1.37 0 01-.82.24 1.56 1.56 0 01-.93-.3 2 2 0 01-.66-.79l-.64.3a2.23 2.23 0 00.85 1.08 2.4 2.4 0 001.38.4 2.49 2.49 0 001-.2m-6.77.05a2.41 2.41 0 00.7-.4 1.51 1.51 0 00.44-.55l-.11-.11v1.08h.76V3.84a1.67 1.67 0 00-.26-1 1.75 1.75 0 00-.72-.65 2.39 2.39 0 00-1.06-.23 2.46 2.46 0 00-.89.16 2.91 2.91 0 00-.76.46 1.77 1.77 0 00-.48.63l.69.38a1.54 1.54 0 011.44-.9 1.31 1.31 0 01.92.31 1 1 0 01.36.79v1.43a1.84 1.84 0 01-.19.87 1.79 1.79 0 01-.66.65 1.89 1.89 0 01-1 .24 1.09 1.09 0 01-.75-.26.78.78 0 01-.29-.62.92.92 0 01.26-.65 1.44 1.44 0 01.88-.36l2-.32v-.68l-2.13.36a2.5 2.5 0 00-1 .35 1.53 1.53 0 00-.57.59 1.73 1.73 0 00-.19.78 1.34 1.34 0 00.24.79 1.57 1.57 0 00.64.55 2.12 2.12 0 00.93.2 2.54 2.54 0 00.88-.15m-4.57-5.47h-.77v5.45h.77zm-3.58 5.38a1.57 1.57 0 00.71-.52 1.31 1.31 0 00.25-.8 1.36 1.36 0 00-.37-1 2.22 2.22 0 00-1-.6l-.91-.26-.33-.12a1.11 1.11 0 01-.33-.25.66.66 0 01-.14-.44.76.76 0 01.27-.59 1.15 1.15 0 01.74-.23 1.52 1.52 0 01.85.26 1.6 1.6 0 01.58.72l.65-.31a1.89 1.89 0 00-.8-1 2.25 2.25 0 00-1.25-.36 2.18 2.18 0 00-.93.19 1.55 1.55 0 00-.66.55 1.48 1.48 0 00-.25.83 1.36 1.36 0 00.34.9 2.17 2.17 0 001.09.6l.78.22a3.06 3.06 0 01.38.14 1.22 1.22 0 01.38.26.61.61 0 01.16.45.73.73 0 01-.34.63 1.37 1.37 0 01-.82.24 1.56 1.56 0 01-.93-.3 2 2 0 01-.66-.79l-.64.3a2.23 2.23 0 00.85 1.08 2.4 2.4 0 001.38.4 2.46 2.46 0 001-.2m-6.17 0a2.59 2.59 0 00.8-.5 2 2 0 00.5-.68l-.65-.34a2.35 2.35 0 01-.66.71 1.72 1.72 0 01-1 .29 1.84 1.84 0 01-1-.27 1.93 1.93 0 01-.92-1.88 2.05 2.05 0 01.19-1.13 1.87 1.87 0 01.68-.74 1.82 1.82 0 01.89-.21 1.73 1.73 0 01.92.26 1.75 1.75 0 01.62.7 1.6 1.6 0 01.13 1l.36-.3h-4.15v.71h4.61a1.15 1.15 0 000-.26 1.85 1.85 0 000-.23 2.66 2.66 0 00-.67-1.78 2.31 2.31 0 00-.79-.59 2.38 2.38 0 00-1.03-.22 2.54 2.54 0 00-1.34.36 2.61 2.61 0 00-.94 1 3 3 0 00-.35 1.46 3 3 0 00.36 1.47 2.6 2.6 0 002.35 1.4 2.8 2.8 0 001-.19m-6.63.06V4.23a1.41 1.41 0 01.36-1 1.24 1.24 0 01.94-.37h.48v-.77h-.34a1.86 1.86 0 00-.95.22 1.39 1.39 0 00-.59.61l.1.14v-.97h-.76v5.45zm-6.37-.91a2 2 0 01-.71-.75 2.19 2.19 0 01-.26-1.06 2.23 2.23 0 01.26-1.07 2 2 0 01.75-.69 1.87 1.87 0 012 0 1.87 1.87 0 01.68.74 2.2 2.2 0 01.2 1.03 2.18 2.18 0 01-.25 1.06 1.89 1.89 0 01-2.65.75m-1 2.95V6.36l-.1.12a2.08 2.08 0 00.85.91 2.58 2.58 0 001.27.32 2.56 2.56 0 002.33-1.39 3 3 0 00.36-1.46 3 3 0 00-.36-1.47 2.64 2.64 0 00-1-1 2.59 2.59 0 00-1.38-.37 2.54 2.54 0 00-1.25.3 2.47 2.47 0 00-.87.83l.12.21V2.09h-.76v7.49zm-5.42-9h-.19L4.6 4.97H1.78zm-2.47 7l.66-1.85h3.44l.69 1.81h.85L3.65 0h-.88L0 7.58z"/></svg>