<svg data-name="Layer 1" xmlns="http://www.w3.org/2000/svg" viewBox="0 0 356.24 36.27"><path d="M176.51 36.27h27.24v-4.68h-27.24zm7.2-31.59h16.44V0h-16.44zm11-4.68h-5.51v36.27h5.51zM96.92 36.27V19.78h14.39v-4.66H96.92V4.68h28V0h-33.5v36.27zM0 36.27h5.56l7.43-24 2.18-8 2.18 7.94 7.33 24h5.66L19.12 0h-7.9zm33.42-13.82h-28v4.67h28zm309.45-18.4h13.37v2.29h-13.37zm3.81 14.21h9.56v2.29h-9.56zm-6.86 14.21h16.42v2.29h-16.42zm-32.51 3.64a2.26 2.26 0 00.73-.41 1.58 1.58 0 00.46-.58l-.12-.11v1.13h.8v-3.9a1.84 1.84 0 00-.27-1 1.88 1.88 0 00-.75-.67 2.45 2.45 0 00-1.11-.24 2.59 2.59 0 00-.92.17 2.71 2.71 0 00-.79.47 1.81 1.81 0 00-.5.66l.72.39a1.56 1.56 0 01.58-.67 1.62 1.62 0 01.91-.26 1.36 1.36 0 011 .32 1 1 0 01.37.82v1.45a1.92 1.92 0 01-.24 1 1.82 1.82 0 01-.68.67 2.07 2.07 0 01-1 .25 1.12 1.12 0 01-.78-.27.81.81 0 01-.3-.64 1 1 0 01.27-.68 1.54 1.54 0 01.88-.39l2-.34v-.72l-2.22.37a2.77 2.77 0 00-1 .36 1.59 1.59 0 00-.59.62 1.67 1.67 0 00-.19.81 1.44 1.44 0 00.24.82 1.63 1.63 0 00.67.57 2.12 2.12 0 001 .21 2.51 2.51 0 00.92-.16m-4.71-5.65h-.8v5.68h.8zm-3.73 5.6a1.8 1.8 0 00.72-.58 1.4 1.4 0 00.25-.83 1.42 1.42 0 00-.38-1 2.29 2.29 0 00-1.08-.62l-1.05-.3-.34-.12a1.1 1.1 0 01-.35-.26.64.64 0 01-.15-.45.78.78 0 01.29-.62 1.14 1.14 0 01.76-.24 1.56 1.56 0 01.89.27 1.86 1.86 0 01.61.74l.67-.31a2 2 0 00-.83-1 2.38 2.38 0 00-1.31-.37 2.17 2.17 0 00-1 .2 1.61 1.61 0 00-.69.57 1.51 1.51 0 00-.25.87 1.35 1.35 0 00.35.93 2.21 2.21 0 001.13.62l.82.24a2.36 2.36 0 01.39.14 1.05 1.05 0 01.39.27.64.64 0 01.17.47.77.77 0 01-.35.65 1.48 1.48 0 01-.86.25 1.65 1.65 0 01-1-.31 2 2 0 01-.68-.82l-.67.31a2.38 2.38 0 00.89 1.13 2.55 2.55 0 001.43.41 2.46 2.46 0 001.05-.21m-6.41 0a2.6 2.6 0 00.83-.52 2.28 2.28 0 00.52-.7l-.68-.36a2.56 2.56 0 01-.69.74 1.76 1.76 0 01-1 .3 2 2 0 01-1-.28 1.92 1.92 0 01-.74-.78 2.14 2.14 0 01-.22-1.18 2.2 2.2 0 01.2-1.17 2 2 0 01.71-.77 1.85 1.85 0 011-.27 1.73 1.73 0 01.95.27 1.77 1.77 0 01.65.73 1.65 1.65 0 01.13 1l.39-.37h-4.35v.75h4.8a1.39 1.39 0 000-.27 2.09 2.09 0 000-.24 2.8 2.8 0 00-.18-1 2.76 2.76 0 00-.52-.87 2.41 2.41 0 00-1.91-.84 2.58 2.58 0 00-1.4.38 2.73 2.73 0 00-1 1 3.13 3.13 0 00-.36 1.52 3.17 3.17 0 00.38 1.54 2.71 2.71 0 001 1.06 2.67 2.67 0 001.43.39 2.83 2.83 0 001.07-.2m-9.54.07v-3.29a1.93 1.93 0 01.19-.87 1.43 1.43 0 01.53-.56 1.56 1.56 0 01.78-.2 1.46 1.46 0 01.76.2 1.26 1.26 0 01.52.55 1.84 1.84 0 01.19.88v3.38h.79v-3.71a2.07 2.07 0 00-.28-1.08 2.13 2.13 0 00-.76-.76 2.18 2.18 0 00-1.09-.27 2 2 0 00-1.11.31 1.81 1.81 0 00-.7.87h.18v-1.1h-.79v5.68zm-6.67-1a2.09 2.09 0 01-.74-.79 2.28 2.28 0 01-.27-1.11 2.21 2.21 0 01.27-1.1 2.11 2.11 0 01.74-.77 1.93 1.93 0 011-.29 2 2 0 011 .29 2.08 2.08 0 01.73.77 2.21 2.21 0 01.27 1.1 2.28 2.28 0 01-.27 1.11 2.07 2.07 0 01-.73.79 2 2 0 01-1 .28 1.92 1.92 0 01-1-.28m2.48.7a2.94 2.94 0 001-1.06 3.27 3.27 0 000-3.06 2.74 2.74 0 00-1-1.05 2.81 2.81 0 00-1.48-.38 2.81 2.81 0 00-2.4 1.56 3.19 3.19 0 000 3 2.86 2.86 0 001 1.06 2.83 2.83 0 001.46.39 2.88 2.88 0 001.45-.38m-10.16-.7a2 2 0 01-.71-.78 2.39 2.39 0 01-.26-1.11 2.36 2.36 0 01.26-1.11 1.91 1.91 0 01.72-.77 1.86 1.86 0 011-.29 1.94 1.94 0 011 .29 2.11 2.11 0 01.73.78 2.21 2.21 0 01.27 1.1 2.28 2.28 0 01-.27 1.11 2.11 2.11 0 01-.73.78 1.93 1.93 0 01-1 .28 1.86 1.86 0 01-1-.28m2.3.74a2.06 2.06 0 00.88-.94l-.12-.12v1.27h.83v-8h-.79v3.68l.12-.22a2.33 2.33 0 00-.9-.86 2.63 2.63 0 00-1.3-.31 2.73 2.73 0 00-1.43.38 2.76 2.76 0 00-1 1.06 3.31 3.31 0 000 3 2.76 2.76 0 001 1.06 2.69 2.69 0 001.43.39 2.55 2.55 0 001.32-.34m-9.77.21v-3.37a1.93 1.93 0 01.19-.87 1.43 1.43 0 01.53-.56 1.56 1.56 0 01.78-.2 1.46 1.46 0 01.76.2 1.26 1.26 0 01.52.55 1.84 1.84 0 01.19.88v3.38h.79v-3.71a2.08 2.08 0 00-1-1.84 2.18 2.18 0 00-1.09-.27 2 2 0 00-1.11.31 1.87 1.87 0 00-.7.87h.18v-1.1h-.79v5.68zm-3.2-7.89h-.85v7.89h.85zm12.43-7.99v-2.64a1.19 1.19 0 01.19-.69 1.36 1.36 0 01.51-.44 1.75 1.75 0 01.74-.15 1.7 1.7 0 01.73.15 1.26 1.26 0 01.5.44 1.19 1.19 0 01.19.69v2.64h.79v-2.64a1.27 1.27 0 01.19-.69 1.32 1.32 0 01.52-.44 1.77 1.77 0 01.73-.15 1.67 1.67 0 01.73.15 1.29 1.29 0 01.51.44 1.27 1.27 0 01.18.69v2.64h.8v-2.88a1.37 1.37 0 00-.29-.85 2 2 0 00-.78-.59 2.44 2.44 0 00-1-.22 2.51 2.51 0 00-1.16.27 1.52 1.52 0 00-.74.78h.23a1.72 1.72 0 00-.76-.75 2.45 2.45 0 00-1.18-.29 2.23 2.23 0 00-1 .22 1.54 1.54 0 00-.7.6l.13.12v-.84h-.8v4.44zm-3-6.27h-.8v6.27h.8zm-3 1.83h-.8v4.44h.8zm-6.39 4.44v-2.78h3.71v-.63h-3.71v-2.14h4v-.62h-4.88v6.17zm47.57-18.05h-.8v5.67h.8zm-3.73 5.56a1.7 1.7 0 00.71-.58 1.48 1.48 0 00-.07-1.79 2.22 2.22 0 00-1.13-.63l-.94-.28a2.36 2.36 0 01-.34-.12.89.89 0 01-.35-.26.64.64 0 01-.15-.45.8.8 0 01.29-.62 1.14 1.14 0 01.76-.24 1.56 1.56 0 01.89.27 1.82 1.82 0 01.61.75l.67-.32a2 2 0 00-.83-1 2.39 2.39 0 00-1.31-.38 2.32 2.32 0 00-1 .2 1.77 1.77 0 00-.69.57 1.51 1.51 0 00-.25.87 1.33 1.33 0 00.35.93 2.29 2.29 0 001.13.63l.82.23.39.14a1.05 1.05 0 01.39.27.66.66 0 01.17.47.76.76 0 01-.35.65 1.41 1.41 0 01-.86.25 1.62 1.62 0 01-1-.31 2 2 0 01-.68-.82l-.67.32a2.4 2.4 0 00.89 1.12 2.55 2.55 0 001.43.41 2.62 2.62 0 001.05-.2m-7.05.05a2.52 2.52 0 00.74-.41 1.9 1.9 0 00.46-.58l-.05-.14v1.13h.79V4a1.79 1.79 0 00-.27-1 1.9 1.9 0 00-.75-.68 2.44 2.44 0 00-1.1-.24 2.69 2.69 0 00-.93.17 2.88 2.88 0 00-.79.48 1.93 1.93 0 00-.5.65l.72.39a1.61 1.61 0 011.5-.93 1.44 1.44 0 011 .32 1 1 0 01.37.83v1.45a1.88 1.88 0 01-.24.94 1.82 1.82 0 01-.68.67 2 2 0 01-1 .25 1.17 1.17 0 01-.78-.26.85.85 0 01-.3-.65 1 1 0 01.27-.68 1.57 1.57 0 01.89-.39l2-.34v-.72l-2.22.37a2.77 2.77 0 00-1 .36 1.69 1.69 0 00-.6.62 1.86 1.86 0 00-.19.81 1.4 1.4 0 00.25.83 1.67 1.67 0 00.66.57 2.34 2.34 0 001 .2 2.63 2.63 0 00.91-.15m-4.8-5.65h-.79v5.67h.79zm-3.72 5.56a1.7 1.7 0 00.71-.58 1.46 1.46 0 00.26-.84 1.41 1.41 0 00-.39-1 2.14 2.14 0 00-1.07-.58l-.94-.28a2.44 2.44 0 01-.35-.12.94.94 0 01-.34-.26.64.64 0 01-.15-.45.77.77 0 01.29-.62 1.14 1.14 0 01.76-.24 1.52 1.52 0 01.88.27 1.68 1.68 0 01.61.75l.68-.32a2 2 0 00-.83-1 2.39 2.39 0 00-1.31-.38 2.32 2.32 0 00-1 .2 1.77 1.77 0 00-.69.57 1.51 1.51 0 00-.26.87 1.38 1.38 0 00.35.93 2.32 2.32 0 001.14.63l.81.23.39.14a1.18 1.18 0 01.4.27.65.65 0 01.16.47.75.75 0 01-.34.65 1.43 1.43 0 01-.86.25 1.6 1.6 0 01-1-.31 2.14 2.14 0 01-.69-.82l-.66.32a2.34 2.34 0 00.89 1.12 2.53 2.53 0 001.43.41 2.69 2.69 0 001.05-.2m-6.42 0a2.79 2.79 0 00.83-.52 2 2 0 00.52-.71l-.68-.36a2.2 2.2 0 01-.68.74 1.8 1.8 0 01-1.05.3 2 2 0 01-1.76-1.05 2.07 2.07 0 01-.21-1.18 2.12 2.12 0 01.2-1.18 1.9 1.9 0 01.7-.76 1.8 1.8 0 011-.28 1.76 1.76 0 011 .27 1.83 1.83 0 01.65.73 1.75 1.75 0 01.13 1l.38-.32h-4.34v.74h4.8v-.27a2.09 2.09 0 000-.24 2.8 2.8 0 00-.18-1 2.76 2.76 0 00-.52-.87 2.48 2.48 0 00-.82-.61 2.57 2.57 0 00-1.1-.23 2.64 2.64 0 00-1.39.38 2.8 2.8 0 00-1 1 3.16 3.16 0 00-.36 1.52 3.11 3.11 0 00.49 1.61 2.89 2.89 0 001 1.07 2.82 2.82 0 001.44.38 2.78 2.78 0 001.06-.19m-6.9.06V4.4a1.46 1.46 0 01.37-1.08 1.3 1.3 0 011-.38h.49v-.8h-.36a2 2 0 00-1 .24 1.4 1.4 0 00-.6.63l.1.14v-.93h-.79v5.67zm-6.63-.95a2 2 0 01-.73-.78 2.24 2.24 0 01-.27-1.1 2.28 2.28 0 01.27-1.11 2 2 0 01.73-.78 1.9 1.9 0 011-.29 1.87 1.87 0 011 .29 2 2 0 01.71.77 2.4 2.4 0 01.32 1.12 2.35 2.35 0 01-.26 1.1 2 2 0 01-.71.78 1.87 1.87 0 01-1 .29 1.9 1.9 0 01-1-.29m-1 3.07V6.62l-.23.16a2.13 2.13 0 00.88.95 2.64 2.64 0 001.32.33 2.76 2.76 0 001.44-.38 2.8 2.8 0 001-1.06 3.08 3.08 0 00.37-1.52 3.07 3.07 0 00-.37-1.53 2.7 2.7 0 00-2.44-1.48 2.64 2.64 0 00-1.3.32 2.48 2.48 0 00-.9.86l.13.22V2.22h-.8v7.79zM259.8.64h-.38l1.6 4.53h-3zm-2.57 7.25l.69-1.92h3.52l.68 1.92h.89L260.13 0h-.91l-2.88 7.89z"/></svg>