<svg version="1.1" id="Layer_1" xmlns="http://www.w3.org/2000/svg" x="0" y="0" viewBox="0 0 1200.8 429.4" xml:space="preserve"><style>.st0{fill:#d9dcc9}</style><g id="Layer_2_00000027606981888876540520000003620892575908789381_"><g id="Layer_2-2"><path class="st0" d="M.8 2C-1.6 7.6 2 13.8 5.6 18.6c4.5 6.1 9.1 12.1 13.9 17.8 3.9 4.6 8.1 9.2 13.7 11.7 2.7 1.1 5.6 1.7 8.2 3.2 6.7 3.7 9.7 11.8 14.9 17.4 1.6 1.5 3 3.1 4.2 4.8 1.2 2 1.7 4.3 2.7 6.5 4.7 10.3 17.8 13.9 25 22.6 8.3 10.2 7.5 25.5 15.2 36.3 3 4.2 7.1 7.5 10.8 11.2 6.7 6.7 11.9 14.8 16.8 23 8.9 15.1 16.8 30.7 23.6 46.9 5.6 13 18.2 21 27.7 31.6 3.7 4 7.3 8.1 11.6 11.6 5.7 4.7 12.2 8.2 18 12.7 12.7 9.7 21.8 23.5 28.5 28.4 0 0 6.2 4.6 6 3-.2-2.2-.1-4.3.2-6.5 0 0 .2-1.6 1.2-.8 1.6 1.4 3.4 2.6 5.4 3.5 2.4 1.1 5.1.9 7.3-.4 1.1-.8 1.9-1.9 3.1-2.4 4.5-2 8.1 5.2 10.4 5.5 0 0 2.5.1 3.4-7.5.9-7.8 2.6-23.4 4.5-38.9.3-2.4.4-4.9.1-7.3-.5-1.6-.9-3.3-1.1-5-.2-3.7 2.5-7.1 2.7-10.8.4-4.2-2.4-8-4.9-11.4-3.7-5-8.6-10.4-14.7-9.8-4.9.5-8.8 4.6-13.7 4.4-.6 0-1.2-.2-1.7-.5-1.4-1.1-.9-3.4.2-4.7s2.6-2.5 3.1-4.2c1.1-3.7-3.2-6.5-5.4-9.6-3.4-5-1.4-11.9-4.5-17-4.9-8.1-18.2-5.8-24.8-12.6-1.2-1.2-1.2-3-1.5-4.7-.6-2.7-.9-5.5-.8-8.2.1-2.8 1.4-5.4 3.6-7.1 1.1-.6 2.1-1.3 3.1-2.1 1.6-1.6 1.6-4.4.6-6.5-1.1-2-2.6-3.8-4.5-5.2-.7-.7-1.6-1.2-2.6-1.5-1.4-.1-2.6.9-3.7 1.8-4.7 3.6-10.6 5.8-13.6 6 0 0-3 .1-2-.8l5-4.4c1.2-1 2.5-2.4 2.2-4-.1-1.4-1.5-2.4-2.9-2.7s-2.9-.2-4.2-.5c-3.5-.6-6.2-3.5-8.2-6.3s-3.6-6.2-6-9c-5.2-5.8-13.8-8-18.5-14.1-2.4-3.1-3.6-7.1-6.5-9.8-1.1-1.2-2.7-2-4.3-2.1-1.7-.1-3.2 1-3.7 2.6-.1.9-.1 1.9-.1 2.9-.1 1-.8 2-1.7 1.9-.5 0-1-.5-1.4-.9-3.4-3.2-6.6-6.5-9.9-9.7-8.7-8.6-14.3-19.9-23-28.5s-19.3-15.5-31.2-18c-1.5-.2-3.1-.6-3.9-1.9-1-1.5-.1-3.5-.2-5.3-.3-2.1-1.8-3.9-3.3-5.3-6.6-6.8-14.2-14.2-23.6-14.9-4.1-.4-8.8-1.4-13-1.6-3.5-.2-7-.4-10.3-1.5-2.9-.9-5.5-2.5-8.2-3.9-2.7-1.8-5.9-3.3-9.1-4.6C6.3-.2 2-.9.8 2m281.3 308.6c-3.7 2-1.5 8.7-4.7 11.2-.6.5-1.5.8-2.2 1.2-2.7 1.9-3.2 6.3-6.3 7.6-.6-1.4-2.1-2.3-3.6-2.2-1.6.2-2.7 1.6-2.5 3.1v.1c.5 2 3 2.5 5.1 2.6l20.5 1.1c1.1-.1 2.2.2 3.2.7 2.5 1.6 1.4 5.6 2.7 8.1s4.5 3.2 7.3 3.6c8.6 1.2 17.2 2.4 25.7 3.5 7.2.9 12.6 7.1 20.5 7 3.4 0 6.6-1 10-1.6 24.2-4.2 47.1 12.9 71.8 15.2 11.4 1 23.1-1.4 34.5.2 15.5 2.2 29.7 11.6 45.4 11.8.1-2.5-3.2-3.4-4.7-5.2-2.6-3.4 1.1-8.1 1.5-12.3.5-5.5-4.9-10.1-10.2-11.1s-11 .2-16.5.6-11.7-.5-15.2-4.9c-1-1.2-1.7-2.9-3-3.9-1.4-1.2-3.4-1.9-4.1-3.5s.1-3.9-.5-5.7c-1.2-3.4-6.1-2.9-9.6-3.4-5.3-.7-9.6-5.4-14.9-5.6-2.7-.1-5.4.9-8 1.2s-5.8-.1-7.3-2.5c-.7-1.1-1-2.6-1.9-3.5-1.9-1.9-5.1-.6-6.8 1.4s-2.6 4.6-4.6 6.2c-2.5 2-6.2 2-9.4 2-12.1-.2-24.2-.5-36.3-.6-1 .1-2-.1-2.9-.5-1.6-.9-2-2.9-2.6-4.6-2-5.4-6.8-9.3-12.6-10-3.5-.4-7.1.6-10.5-.5-5.6-1.9-9.3-9-15.2-8.5-2.1.1-4 1.4-6 2.1-7.6 3.1-16 1-24-1l-2.1.6zm228.2 58.1c-.9.9-1.2 2.3-.8 3.5.8 2 3.2 2.6 5.2 3.2 3.5 1 7.1 3.4 7.5 7 0 1.8-.4 3.5-1.1 5.1-.1.5-.2 1.1.2 1.2.2 0 .3 0 .5-.1 3.2-1.5 4.8-5 7.7-7.2 1.5-1.1 3.4-1.9 4.8-3s2.9-2.9 2.6-4.7c-.2-1-.6-1.9-1.2-2.6-1.7-2.1-4.3-3.4-7.1-3.4-2.2 0-4.3.9-6.5 1.1-2.9.6-9.4-2.3-11.8-.1m39.2 5.1c-1.2 1.9-1.2 4.2-1.7 6.4s-1.5 4.6-3.7 5.1c-.4.1-.9.2-1 .6s.1.7.5 1c2.2 2.1 5.3 2.6 8.5 2.9 2.7.2 5.8 0 7.3-2.2 1.1-1.9.6-4.2 1.2-6.2.5-1.2 1.1-2.3 1.9-3.4.8-1.1 1-2.5.6-3.7-.4-1-1.3-1.8-2.4-2.2-3.4-1.4-8.8-1.7-11.2 1.7m17.2 11.7c-.5 1-.8 2.1-.9 3.2 0 1.9 1.7 3.4 3.6 4.1 3.5 1.4 7.5.9 11.2.1 7.7-1.6 15.1-4.5 22-8.3 1-.6 2.2-1.2 3.3-.7.5.3.9.6 1.4 1 2.2 1.9 5.2 2.8 8.1 2.5 1 0 2-.5 2.6-1.4.2-.5.4-1.1.6-1.6 1.4-2.1 5.3.4 7-1.5.5-.9.6-1.9.2-2.9-.5-2.1-1.4-4.2-2.6-6-.2-.2-.4-.6-.8-.7-1.2-.6-2 1.2-3.1 2s-2.6.6-3.4-.5c-.1-.1-.1-.2-.2-.3-.2-.6-.4-1.2-.8-1.7-.7-1-2.1-.9-3.2-.4s-2 1.2-3.1 1.6c-2.1.6-4.2-.6-5.8-2.1s-3-3.1-5.1-3.9-4.8 0-5.2 2.1c-.4 1.7 1.1 3.4 2.7 4.1s3.5 1 5.1 1.7 3.1 2.5 2.6 4.2c-.2.7-.6 1.3-1.1 1.7-2.4 2.1-6.1 2-9 .6s-5.3-3.4-8.3-4.7c-3.8-1.7-8.1-2.2-12.2-1.5-4.1 1-4.2 5.6-5.6 9.3m64.8 16.1c-1.8.1-3.5.7-4.8 1.7-1.5 1-2.1 2.9-1.6 4.6.8 2.2 3.5 3.1 6 3.5 4.7.6 9.7.5 14 2.5 3.5 1.5 6.3 4.2 9.1 7 1.7 1.7 3.6 3.5 5.8 4.2 4.8 1.5 10-1.2 11.6-6 .3-.9.3-1.9 0-2.9-.7-2.2-3.4-3-5.5-3.7-3.5-1.4-6.4-3.7-8.6-6.7-.9-1.5-2-2.9-3.2-4.2-3.5-3.2-6.6-.4-10.3.1-4.3.5-8.4-.5-12.5-.1m13.7-19.3c0 1.1.3 2.2.9 3.1 1 1.4 2.9 1.7 4.6 1.9 6.2.5 12.8-1 18.7 1.2 2.1.9 4.1 2.1 6.3 2.4 5 .5 9.6-4.5 14.4-3.4 1.2.2 2.5 1 3.7 1.2 2.5.4 4.7-1.4 7-2.4 4-1.7 8.5-1.5 12.6-2.9 3.5-1.2 6.5-3.5 9.5-5.8 1.9-1.3 3.5-3 4.6-5 .9-2.1.5-5-1.5-6-.4-.1-.7-.2-1.1-.2-1.2.4-.6 2.2-.6 3.6.1 1.9-1.8 3.4-3.5 4s-3.7 1.1-5.1 2.5-1.9 3.4-3.6 4c-2.5.9-4.5-2.1-7-3.2-3.3-1.5-7 .7-10.4 1.7-6.6 1.7-13.4-1.2-19.8-3.9-7.5-2.9-29.7-6.4-29.7 7.2M376.5 101.8s-2-4.7-3.5-2.7-4.4 6.1-7.3 10.1c-.9 1.2-1.9 2.6-1.9 4.1s1.4 3.1 2.1 2.9c0 0 .7-.2.4.8s-2.7 1.7-4.5 3.2c-2.6 2.2-3.2 5.8-3.2 9.3 0 7.7 3.4 16 6.7 17.9 0 0 3.4 1.9 1.7 2.6s-3.1 5.3-1.4 8.4 5.7 5.4 5 8.8c-.1.8-.5 1.4-.6 2-.1 1.6 1.2 2.9 2.7 3.6 2.9 1.6 6 2.6 8.7 4.1s5.5 4.1 6 7.2c.6 4.1-2.2 8.4-.6 12.3.7 1.9 2.4 3.1 3.6 4.6 4.4 5.2 3.7 12.8 3.4 19.6-.2 1.5 0 3 .5 4.4.5 1.4 2 2.3 3.5 2.2 1.1-.1 2-1.1 3.1-1.2 1.5-.1 2.7 1 4.1 1.6 1.8.9 3.9.8 5.7.8l21.9-.8c.8 0 1.5 0 2.2.2 4.2 1.7-.1 10 1.7 11.1 0 0 2 1.1 1.7 2.1s-.4 2.9.4 3.5c0 0 .7.6 2.7-1.4s8.3-1.9 13.8-2.9 11.9-4.6 11.6-7.5c0 0-.2-2.7 2.1-.9s8.7 3.7 11.8 3.5c0 0 3.1-.2 2.1 1s.4 5.5 3.4 6.5 6.6-1.5 6.6-3.1c0 0 0-1.6 2.1.2s8.1 3.1 10.7 2.2c0 0 2.6-.9 3.2 2.5.7 4.4.9 8.9.6 13.3 0 0-.2 3.4 4.9 1.6 5.1-1.7 15-6.6 24.1-12.7 6.1-4.1 12.6-10.6 11.7-14.2 0 0-1-3.6 1.1-4.5s4.6-6.1 4-8.3c0 0-.6-2.2.5-1.2s4.8-2.5 4-5.3-3.9-4.5-5.3-4.9c0 0-1.5-.4-.2-1.1 1.8-1.5 2.9-3.7 3-6.1-.1-2.7-2.7-5.5-4.1-5.2 0 0-1.4.2 1.9-2.1s10.2-8.8 9.6-12.7c0 0-.7-3.9-1-3s1.7 2.9 3.7 2.9 3.7-1.4 5.2-2.5c4.2-3.4 8.7-7 10.1-12.2s-.6-11.1.1-16.5c1.6-10.8 13.9-18.5 13.4-23.9 0 0-.5-5.5 3.5-2.1s16.3 4.2 20.8 1.5c0 0 4.5-2.7-1.6-6.2s-16.8-12.7-21.1-18.2c0 0-4.3-5.5-3-5.8s2.6-3.6 2.2-6.3-1.9-5.2-3.2-7.6c-3.1-5-6.1-9.8-9.2-14.8-3.5-5.6-7-11.2-8.7-13.9 0 0-1.8-2.7-.5-1.5s5.8 1.1 7-.2c0 0 1.1-1.4 1.7-.6s2.6 2.1 4.1 1.1c2.1-1.5-.1-4.6-2-6.3s-2.6-6-1.2-6c0 0 1.2 0-5.1-3.2s-21.6-5.2-35.6-1.8c-2.2.4-4.3 1.3-6.1 2.6-1.8 1.7-3 3.9-3.6 6.3-1.9 6-2.7 12.3-2.2 18.5.3 1.3.1 2.6-.4 3.7-1.5 3.2-6.6 2.6-9.2 5.1-3.7 3.5 0 10-1.7 14.8-.6 1.9-2.1 3.2-3.4 4.7-4.8 5.5-8.1 12.2-8.8 15.8 0 0-.6 3.6-3.7 2.5s-10.3-.5-16 2.9c-1.5 1-3.2 1.8-4.9 2.5-4 1.1-8-1.4-11.7-3.1-9-4.1-20.9-3.8-27.4 3.6-2.2 2.6-4 6.1-7.2 7.5-4 1.6-8.3-.6-12.6-.9-7.2-.5-13.8 5-21 4.5-4-.2-7.7-2.4-11-4.7-8.4-5.9-14.7-13.8-16.7-18.6m269.7 49.4s.2 0-1.2.2-2.5 4.2-1.7 7.2 2.4 5.7 2.4 7.3c0 0 0 1.5-4.3 3.2s-10 10.9-9.2 20.1c.2 3 1.1 6 .6 8.8-.5 1.8-1.2 3.6-2 5.4-2.1 5-3.1 10.6-3 13.3 0 0 .1 2.7-1.1 2.4s-4.1 1.4-5.2 3.9-1.1 5.2-1.1 7.8c0 3 .1 6.1.1 9.1 0 2.7.6 6.1 3.2 6.8 3 .9 6.6-2.7 9.1-.9.7.7 1.2 1.6 1.5 2.5 4.2 12.5 5 25.8 2.2 38.7-.8 3.7-1.7 8 .7 10.8 5.1 5.8 16.8-2.6 19.5.2 0 0 2.7 2.9 2.9-3.1s.6-17.8 1-29.7c.4-10.6.8-21.4-2.1-31.6-.5-1.8-1.1-3.7-.5-5.5 1-2.6 4.2-3.5 7-4l7.8-1.5c.8-.2 1.7-.2 2.5 0 1.6.6 2.1 2.6 2.2 4.4.2 7-3.1 14.6.5 20.4 2 3.1 5.5 4.9 8.5 6.8 3 2 6.1 5 6.1 8.6 0 4.5-4.5 9.1-2.1 12.9.7 1 1.7 1.8 2.7 2.4 3.2 2.1 7.8 4 10.6 1.2 1-1 1.4-2.5 2-3.7 2.4-4.6 8.5-6.8 10.8-5.9 0 0 2.4 1 2.5.2s.4-2.2.5-3c0 0 .1-.8 1-.1s3.6-.9 4.2-3-.5-4.4-1.9-6.1c-4.1-4.9-11.7-7.5-12.7-13.7-.4-2.5.2-5 .4-7.3.4-7-4-13.2-8.8-18.2s-10.5-9.3-13.8-15.4c-.3-.5-.4-1-.5-1.5 0-1.7 2.1-2.5 3.9-2.7 12.6-2.3 23.8-9.6 31-20.3 1.1-1.6 2.2-3.5 4.2-4.2 3.2-1.1 7.1 1.9 10.2.4 2.7-1.4 2.6-5.9.2-7.7s-6-1.6-8.6 0c-1.1.8-2.4 1.5-3.6 2.1-2.2.8-4.6.1-6.8.2-6.5.2-12.1 6.2-18.4 5-2.2-.4-4.3-1.8-6.7-1.9-6 0-8.3 7.7-13.2 11.3-4.8 3.3-11.4 2.1-14.8-2.6-1-1.4-1.5-3-2.4-4.5-1.1-2-2.9-3.6-4.2-5.5-4.2-5.2-5.9-12-4.7-18.5 1.3-6.6 6.1-12 12.4-14.2 3.4-.9 6.9-1.2 10.5-.9 12.2.1 24.4.4 36.6.5 8.8.1 17.8.4 26 3.7 2.7 1.1 5.5 2.6 8.5 2.6s5.7-1.6 8.3-3.4c11.9-7.6 23.9-16.7 29.7-29.6.6-1.4 1.1-3.1-.1-4.1-1-.9-2.5-.4-3.6.2-10.7 5.2-18.5 16.7-30.3 17.7-7.1.6-14.4-2.9-21.2-.6-1.5.5-2.9 1.2-4.3 1.2-1.9 0-3.6-1.1-5.3-2-9.9-4.6-23.8 2.1-32-5.2-1.2-1.1-2.4-2.6-4-3.5-4.3-2.2-9.2 1.8-12.6 5.3-2.9 3.1-6.1 5.1-10.3 5.5-3.4.2-4.7-.6-7.5 1.7-2.9 2.6-4.8 7.5-6 11.1-.7 1.3-2.5 12.5-2.2 12.5m301.7 20.7c-2.9 3.8-5.1 8-6.6 12.4 0 0-.8 2.7 2.7 2.2s11.3-1 15.9 4c4 4.2 4.1 11.1 8.1 15.3 3.4 3.6 8.7 4.6 13.7 4.9 10 .6 19.9-.5 24.8-1.9 0 0 4.7-1.4 4.7.5s-.2 5.8-.4 7.7c0 0-.1 2-1.9-.1s-8.3-3-12.9-.2c-3 1.9-5.2 5-8.6 6.1-2.4.7-4.8.5-7.3.4-2.8-.1-5.6.1-8.3.5-2 .4-4.5 1.6-3.8 3.6.2.9 1.1 1.4 2 1.9 3.1 1.5 6.6 2.4 9.7 3.9s6.2 3.9 7.1 7.2c1.2 4.6-1.7 9.7-.1 14.2 1.2 2.9 4.1 4.8 7.2 4.7 5.7-.4 8.7-7 10-12.4s2.9-12.2 5.6-13.2c0 0 2.6-1 3 .5s-.8 4.7-.5 8c.5 6.7 7 11.6 13.5 12.9 2 .4 4 .6 6 .8l7 .6s1.4.1 1.4 3.7 7.2 10 14.3 9.1 13.9 1.6 20.6 4.5 13.1 6.5 20 8.1c4.1 1 8.5 1.2 12.1 3.5 2.2 1.6 4.3 3.4 6 5.5 5.2 5.2 11.4 9.2 14.9 10.5 0 0 3.5 1.2 2.7 1.5-1 .5-1.7 1.4-2 2.5-.1.5.2.9.6 1.1.7.4 2.1 1.1 2.9 1.5 0 0 .7.4-.2 1.1s0 3.6 1 5.6c3.1 5.8 6.5 11.4 10.2 16.8 0 0 2.4 3.2 1 3.9s-1.6 4.9.6 6.5c2.5 1.7 6.2.5 7.5 1.4 0 0 1.2.9-.1 1.4s-4.2 1.4-5.7 1.9c0 0-1.4.5.1.9s3.6 3.9 3.8 7.1-1.1 6.5-2.6 9.5c-.9 1.5-1.7 3.2-1.1 4.9.9 2 3.9 2.2 5.6.9s2.5-3.5 2.9-4.5c0 0 .4-1 .9 1.4s6 5 10.8 4.5 9.1-3.2 11.1-4.6c0 0 2-1.4 1.2-.1s-.1 4.7 1.6 7.2 4.3 4.1 6.7 6c5.3 4 9.9 8.8 13.8 14.2V229s0-7.7-1.4-7.3-3.4-2.5-5.6-4.2c-3.7-2.7-8.7-3.5-13.3-4.2-11.4-2-22.6-5.4-33.2-10-7.1-3.1-13.9-6.7-21.3-9.2-4.4-1.6-9-2.2-13.7-1.6-4.6.9-9 3.7-10.4 8.1-.3 1.2-.7 2.4-1.2 3.5-2.7 4.4-9.6 2-14.4 3.6-4.6 1.5-7 6.6-9.6 10.7-5.6 9-14.2 15.8-24.2 19-3 1-7 1.4-8.8-1.2-1.2-1.7-1-4.1-1.7-6.1s-3.5-3.7-4.1-2.9c0 0-.8.9-1.1 0s0-3 0-4.9-1.4-4.2-3.2-4c-3.1.4-2 5.5-2.9 6.8 0 0-.9 1.2-3.1-3.1s-6.7-14.2-5.1-23.9c.6-3.5 2-7 1.2-10.3-.7-3.7-4-6.7-3.7-10.6.1-1.9 1-3.9.4-5.6-1-2.7-4.7-2.9-7.7-3-5.9-.1-11.6-1.8-16.7-4.9-2.9-1.7-5.5-4-8.7-4.7-3.6-.9-7.3.2-10.8 1.5-9.7 3.1-22.3 3.2-28.5 11.3m-125 79.9c2.2 1.4 5 2.5 7.5 1.9 1.5-.4 2.8-1 4-2 2.5-1.7 5-4 5.5-7 .8-4-2.1-7.8-5.2-10.4-4.7-4.1-18.3-5.4-23.9-1.6-7.7 5.1 7.2 16.2 12.1 19.1m39.1-23.5c9.2-6.5 22.5 1.9 32.8-2.2 1.9-.8 3.7-1.9 5.6-1.4 1.5.4 2.6 1.7 3.9 2.7 5.3 4.1 13.3.6 19.6 2.9 3.9 1.4 6.7 4.9 8.3 8.7 1.4 3.9 2.3 8 2.5 12.1.3.8 0 1.8-.6 2.4-.8.4-1.8.3-2.5-.2-9-4.5-17-10.8-26.6-13.8-.9-.3-1.9-.4-2.9-.1-.7.5-1.3 1.1-1.9 1.7-2.1 2-5.6 1-8.1-.5s-5-3.5-7.8-3.4c-3.9.1-7.1 4-10.8 3.1-2.6-.6-4.1-3.2-6.5-4.4-4.3-2.2-7.1 1.4-8.5 2.5 0 0-1.4 1.1-2-.9s2.2-6.7 5.5-9.2m3.4 16.3c-2.5.5-4.8 1.8-6.6 3.7-.4.4-.7 1-.8 1.6.2 1.4 2.1 1.1 3.4.6s2.7-1.1 4.1-1.6c1-.3 1.9-.8 2.6-1.6.7-.8.8-2 .1-2.9m43.7-47.4c-1.5 0-2.9.5-4 1.5-1 1.1-1.4 2.9-.4 4 1 1 2.3 1.5 3.7 1.4 2.5.1 4.9 0 7.3-.4 1.7-.2 3.6-.8 4.6-2.2 1.5-2.4-.6-5.7-3.2-6.5s-5.6.2-8.2 1.1M803 205.6c1.1 3.9 3.6 7.2 5.3 8.3 0 0 1.7 1 2 0 .4-1.8.3-3.6-.2-5.4-.3-1.1-.9-2.2-1.9-2.9-.9-.7-2.2-.8-3.2-.1m-2.6-8.4c-3.2-.6-6.8.4-8 1.6 0 0-1.2 1.1.4 2s5.5.7 9.1.5l10.1-.6s2-.1 2.2-.6-.2-1.7-1.1-2.4c-.9-.6-2-.9-3.1-1-3.6-.5-7.2-.5-10.8-.2m-25.1-1.5c-2.2-1-4.6-1.5-7-1.4-2.4.4-4.7 2.2-4.6 4.7s3.1 4.4 5.7 4c1.4-.3 2.8-.6 4.1-1.1 3.8-.9 8.2.9 11.8-.9.4-.2.9-.5 1-.9.2-.6-.1-1.1-.5-1.6-2.5-3.4-7.2-4.1-11.3-4.6m70.4.3c.6 1 2 1.4 3.2 1.6 3.7.5 7.5.4 11.2-.2 1.4-.2 3-.9 3-2.2 0-.6-.2-1.1-.6-1.5-4-6.3-21.4-5.1-16.8 2.3m11.9-52.4c.1-1 .5-2 1.1-2.7 1.4-1.4 3.6-1.1 5.5-.6 5.8 1.4 11.4 3.4 16.8 6 0 0 3.2 1.6 3.7-.2s-3.5-5.1-7.1-6.7-8-3.7-8.3-7.6 3.7-6.7 6.8-9 6.3-6.7 4-9.9c-1.5-2-4.6-2.2-7-1.1-2.2 1.3-4.1 3-5.5 5.1-2.4 3-4.7 6-7 9-.9 1.4-2.2 2.5-3.6 3.3-1.5.6-3.6.4-4.4-1.1s0-3.3 1.2-4.6 2.7-2 3.8-3.3c3.1-4 .5-9.7.5-14.8-.1-3.7 1.4-7.3 2-9.1 0 0 .7-1.7-4.2.9s-10.3 14.9-7.6 25.6c.7 2 1.1 4 1.2 6.1 0 2.4-1 4.6-.6 7s2 4.2 3 6.4c1.7 4.1.9 8.7 1.1 13.2.3 4.8 2 9.5 4.9 13.4 1.2 1.7 8.5 9.9 8.2 3.2-.1-3.1-6.2-9.1-7.3-12.6-1.5-5.3-2-10.6-1.2-15.9m-19.2 20.3c.4 1.6 2.7 2.6 3.2 2 0 0 .5-.6.6.4s.2 3.2 2 4.4c1 .6 2.6 1 2.6 2.2 0 .4-.2.9-.1 1.2.1.9 1.2 1.1 2.1 1.2 1.3.2 2.7.1 4-.4 1.3-.5 2.1-1.8 1.9-3.2-.4-1.5-2.2-2.1-3.1-3.4s-.7-3.4-.9-5.1-1.4-3.7-3.1-3.5c-.6.2-1.1.4-1.7.5-2.2.1-2.9-3.1-5.5-1.9-1.6 1-2.3 4.2-2 5.6m31.1-75.1c.5 1.5 0 3.1-.1 4.7s1.2 3.5 2.7 3c.6-.3 1.1-.8 1.4-1.5 1.7-3 2.3-6.4 1.9-9.8-.1-.9-.5-2-1.5-2-.5 0-1 .3-1.4.6-1.2 1.2-2 2.8-2.2 4.5m29.8 69.4c.4.2 1 .4 1.2 0v-.4c-.3-2.4-1.7-4.5-3.7-5.7-1.6-1-3.6-.2-2.6 1.7.8 1.9 3.4 3.4 5.1 4.4M746.2 410.9c-.6 1.2-1.4 2.6-1 4 .4 1.1.9 2.2 1.5 3.2 1.1 2.6-.1 5.6-1 8.3-.3.5-.4 1.1-.2 1.7.4 1 1.6 1.2 2.6 1.2 3.5 0 7-.9 10.1-2.5 2.2-1.1 4.2-2.7 6.6-3.6 1.9-.5 3.8-1.1 5.6-1.9 2.2-1.1 3.9-3.2 5.5-5.2 1.9-2.4 3.6-4.7 5.5-7 1.1-1.4 2.2-3 1.7-4.7-.4-1.5-2-2.5-1.9-4.1s1.7-2.2 3-3 2.4-2.6 1.4-3.6c-1.2-1.2-4 .6-5.2-.8-.9-.9-.2-2.5-.5-3 0 0-.4-.5-2.7.7s-7.3 3.7-10.6 8c-1.4 1.7-2.9 4-5 3.6-3.3-.5-4.3-3.4-7.7-.8-3.4 2.5-6 6.3-7.7 9.5"/><path class="st0" d="M472.1 334.3c-4.7-1-9.8.6-11.6 2.2 0 0-1.7 1.6.6 3s7.8 1 13 .8c5.9-.4 11.6-.6 14.4-.9 0 0 2.9-.2 3.2-.9s-.4-2.5-1.6-3.5c-1.3-.8-2.9-1.3-4.5-1.4-5.2-.6-10.4-.8-15.5-.4"/></g></g></svg>